<?xml version="1.0" standalone="no"?>
<!DOCTYPE svg PUBLIC "-//W3C//DTD SVG 1.1//EN" "http://www.w3.org/Graphics/SVG/1.1/DTD/svg11.dtd" >
<svg xmlns="http://www.w3.org/2000/svg" xmlns:xlink="http://www.w3.org/1999/xlink" version="1.1">
<metadata>
Created by FontForge 20170910 at Thu Jan  7 07:59:47 2010
 By Jimmy Wärting
Copyright (c) 2010, Danh Hong (khmertype.blogspot.com),
with Reserved Font Name Siemreap.
This Font Software is licensed under the SIL Open Font License, Version 1.1.
This license is available with a FAQ at: http://scripts.sil.org/OFL
</metadata>
<defs>
<font id="Siemreap" horiz-adv-x="0" >
  <font-face 
    font-family="Siemreap"
    font-weight="400"
    font-stretch="normal"
    units-per-em="2048"
    panose-1="2 0 5 0 0 0 0 0 0 0"
    ascent="1638"
    descent="-410"
    bbox="-3125 -1200 4650 2502"
    underline-thickness="150"
    underline-position="-292"
    unicode-range="U+0020-25CC"
  />
<missing-glyph horiz-adv-x="1536" 
d="M256 0v1280h1024v-1280h-1024zM288 32h960v1216h-960v-1216z" />
    <glyph glyph-name="uni17D2_uni1780.zz02" unicode="&#x17d2;&#x1780;" 
d="M-950 -400v-250h-150v250q0 300 400 300t400 -300v-250h-150v250q0 150 -250 150t-250 -150z" />
    <glyph glyph-name="uni17D2_uni1781.zz02" unicode="&#x17d2;&#x1781;" 
d="M-700 -650q-200 0 -300 48q-100 46 -100 138q0 78 67 87l315 44q136 18 200.5 44t64.5 63q0 28 -61.5 52t-185.5 24q-166 0 -208 -36t-42 -114q-150 0 -150 92q0 69 125 113t275 44q160 0 280 -52.5t120 -117.5q0 -76 -87 -126t-261 -73l-303 -42q0 -47 62.5 -67.5
t188.5 -20.5q125 0 187.5 25t62.5 80l150 37q0 -120 -100 -180q-100 -62 -300 -62z" />
    <glyph glyph-name="uni17D2_uni1782.zz02" unicode="&#x17d2;&#x1782;" 
d="M-950 -550l100 95q101 95 150 95q100 0 100 -75t-100 -75q-50 0 -113 -40l-95 -100h-192v250q0 300 400 300t400 -300v-250h-150v250q0 150 -250 150t-250 -150v-150z" />
    <glyph glyph-name="uni17D2_uni1784.zz02" unicode="&#x17d2;&#x1784;" 
d="M-800 -650q-150 0 -225 62q-75 63 -75 188q0 100 37 150q38 50 113 50q50 0 75 -25t25 -75q-50 0 -75 -25t-25 -75q0 -100 150 -100q157 0 250.5 99t151.5 251q3 25 15 38q12 12 33 12q50 0 50 -50q-13 -50 -50 -162q-37 -113 -100 -188t-150 -112q-87 -38 -200 -38z" />
    <glyph glyph-name="uni17D2_uni1785.zz02" unicode="&#x17d2;&#x1785;" 
d="M-770 -100q57 0 57 -56q0 -19 -7 -44q-26 -100 -102 -168t-178 -97q0 -35 150 -35q179 8 288 114q-88 34 -88 116q0 70 37 104q38 35 113 35q65 0 97 -35q33 -34 33 -104q0 -18 -16 -46h36q27 0 100 37q0 -93 -102 -130h-48q-13 0 -25.5 0.5t-23.5 1.5q-13 -17 -28.5 -36
t-32.5 -40q-70 -83 -155 -125t-185 -42q-150 0 -225 46t-75 139q0 95 50 101q65 14 129 50t86 94l29 72q10 48 86 48zM-470 -270q6 12 6 21q0 22 -36 22q-50 0 -50 -43q0 -28 55 -38q18 22 25 38z" />
    <glyph glyph-name="uni17D2_uni1786.zz02" unicode="&#x17d2;&#x1786;" 
d="M-950 -100v-163q34 13 75 13q215 0 215 -200q0 -50 105 -50t105 50v94h-12q-118 0 -128 79q-3 21 -3 40q0 54 22 90q29 47 121 47q150 0 150 -100v-250q0 -200 -255 -200t-255 200q0 50 -65 50q-75 0 -75 -150v-100h-150v550h150z" />
    <glyph glyph-name="uni17D2_uni1787.zz02" unicode="&#x17d2;&#x1787;" 
d="M-451 -200q-25 0 -37 -12q-13 -13 -13 -38q0 -50 48 -50h37q11 0 12 1q-11 99 -47 99zM-179 -258q25 0 25 -33q0 -45 -50 -65q-11 -4 -22.5 -8t-24.5 -8v-8q0 -85 -51 -178q-50 -92 -151 -92q-51 0 -104 26q-53 27 -107 80l-37 35l-39 -35q-60 -54 -110 -80t-101 -26
q-100 0 -150 93t-50 178q0 139 50 209t150 70q50 0 50 -50t-50 -50q-25 0 -37 -45q-13 -45 -13 -134q0 -35 12.5 -78t37.5 -43t87 32.5t163 145.5q98 -113 148 -145.5t102 -32.5q24 0 36.5 38t13.5 64q-12 -1 -24.5 -1.5t-25.5 -0.5q-75 0 -113 38q-37 37 -37 112t37 112
q38 38 113 38q80 0 128 -45t64 -134q14 4 28 7.5t27 8.5q6 1 10.5 2t7.5 2q4 1 7 1z" />
    <glyph glyph-name="uni17D2_uni1789.zz02" unicode="&#x17d2;&#x1789;" 
d="M-300 -300q0 -150 -67 -225q-68 -75 -203 -75q-113 0 -197 36t-139 109q-79 103 -139 154q-62 51 -105 51q-53 0 -90 -22q-37 -23 -60 -68v50q0 50 38 95q37 45 112 45q99 0 191 -55t177 -166q59 -79 212 -79q120 0 120 150q0 50 -25 75t-75 25q0 50 25 75t75 25
q75 0 113 -50q37 -50 37 -150z" />
    <glyph glyph-name="uni17D2_uni178A.zz02" unicode="&#x17d2;&#x178a;" 
d="M-950 -370h30q140 0 140 -130q0 -150 -170 -150h-150v280q0 270 400 270t400 -270v-280h-150v280q0 120 -250 120t-250 -120zM-950 -470v-80q70 0 70 49q0 31 -40 31h-30z" />
    <glyph glyph-name="uni17D2_uni178B.zz02" unicode="&#x17d2;&#x178b;" 
d="M-500 -145q0 37 25 56t75 19t75 -38q25 -37 25 -112v-337q0 -47 -27 -70q-26 -23 -80 -23l-286 138l-103 -99q-38 -39 -59 -39t-49 43l-170 205q-25 37 -25 81q0 62 88 75q91 13 164 19q74 6 137 6h261q-26 1 -38 20q-13 19 -13 56zM-450 -341h-273q-40 0 -96 -5
q-55 -6 -110 -18l90 -116l140 107l249 -97v129z" />
    <glyph glyph-name="uni17D2_uni178C.zz02" unicode="&#x17d2;&#x178c;" 
d="M-950 -221q70 0 70 -31q0 -35 -35 -66t-110 -31t-75 65v53q0 53 85 117t135 64t180 -96q130 96 180 96t135 -64t85 -125q0 -56 -65 -96q-64 -39 -196 -74l-389 -103q50 -21 125 -21q74 0 186 19t189 98l150 24v-197q0 -43 -25 -64q-25 -22 -175 -22q50 43 50 86v42
q-89 -50 -202 -76.5t-248 -26.5q-100 0 -150 35t-50 104q0 75 67 91l449 113q67 20 101 42q33 21 33 46q0 31 -27 45q-28 13 -51 13q-24 0 -172 -114q-156 114 -179 114t-47 -14t-24 -46z" />
    <glyph glyph-name="uni17D2_uni178E.zz02" unicode="&#x17d2;&#x178e;" 
d="M-2275 -470v-80q70 0 70 49q0 31 -40 31h-30zM-1775 -370q0 120 -250 120t-250 -120h30q140 0 140 -130q0 -150 -170 -150h-150v280q0 270 400 270t400 -270v-104l250 206l250 -206v104q0 270 400 270t400 -270v-280h-150v280q0 120 -250 120t-250 -120v-280h-150
l-250 215l-250 -215h-150v280z" />
    <glyph glyph-name="uni17D2_uni178F.zz02" unicode="&#x17d2;&#x178f;" 
d="M-950 -370h30q140 0 140 -130q0 -150 -170 -150h-150v280q0 270 400 270t400 -270v-280h-150v280q0 120 -250 120t-250 -120zM-950 -470v-80q70 0 70 49q0 31 -40 31h-30z" />
    <glyph glyph-name="uni17D2_uni1790.zz02" unicode="&#x17d2;&#x1790;" 
d="M-1200 -400q0 125 88 212q87 88 262 88q164 0 282 -84q116 -83 169 -183q52 -100 97 -141q46 -42 102 -42q0 -100 -50 -100q-100 0 -166 46t-109 146t-127 154t-198 54q-100 0 -150 -42.5t-50 -107.5q0 -75 38 -112q37 -38 112 -38q0 -50 -25 -75t-75 -25q-100 0 -150 62
q-50 63 -50 188z" />
    <glyph glyph-name="uni17D2_uni1791.zz02" unicode="&#x17d2;&#x1791;" 
d="M-700 -196q0 12 -50 12q0 42 25 63t75 21t75 -21t25 -63q0 -41 -46 -113q-46 -73 -129 -120q-84 -47 -205 -74q0 -30 65 -30q16 0 36 2q100 9 216 84t144 146q28 70 50 87q22 18 54 18q65 0 65 -42v-338q0 -42 -49 -63q-48 -22 -146 -22q45 43 45 85v96
q-61 -85 -161.5 -133.5t-189.5 -48.5q-124 0 -211.5 41t-87.5 121q0 68 50 81q200 55 275 120t75 91z" />
    <glyph glyph-name="uni17D2_uni1792.zz02" unicode="&#x17d2;&#x1792;" 
d="M-475 -175q-8 -65 -118 -149q-49 -36 -79 -50q105 -35 157 -35q33 0 44 15q25 37 34 117q2 20 2 35q0 41 -18 42q-20 2 -20 32q0 6 1 15q4 39 48 39q5 0 11 -1q58 -5 96 -49q32 -37 32 -97q0 -14 -2 -30q-15 -127 -70 -186q-48 -52 -126 -52q-12 0 -24 1q-19 2 -41.5 8
t-47.5 12l-66 19q-11 -88 -63 -128q-43 -33 -116 -33q-15 0 -31 1q-129 13 -190 55q-52 39 -52 99v16q8 65 60 84q150 30 259 82q108 51 193 124q1 7 1 14q0 31 -21 35q5 38 65 38q9 0 20 -1q62 -6 62 -66v-6zM-964 -492v-4q0 -26 51 -38q29 -7 55 -7q24 0 46 6q45 12 50 57
l8 64q-48 -20 -99 -39q-52 -20 -111 -39z" />
    <glyph glyph-name="uni17D2_uni1793.zz02" unicode="&#x17d2;&#x1793;" 
d="M-900 -550q-250 0 -250 195q0 205 250 205h310v100h150v-100h340v-150h-340v-100q50 0 75 -31t25 -94t-31 -94q-32 -31 -94 -31t-94 38q-31 37 -31 82q-120 -20 -310 -20zM-1000 -355q0 -45 100 -45h310v100h-310q-100 0 -100 -55z" />
    <glyph glyph-name="uni17D2_uni1795.zz02" unicode="&#x17d2;&#x1795;" 
d="M-550 -215q0 75 100 115h150v-550h-150l-250 167l-250 -167h-150v550h150v-380l250 167l250 -167v130q-100 60 -100 135z" />
    <glyph glyph-name="uni17D2_uni1796.zz02" unicode="&#x17d2;&#x1796;" 
d="M-300 -650h-150v338l-55 43l-195 -109l-192 109l-58 -44v-97h30q39 0 58.5 -27.5t19.5 -67.5t-24 -77.5t-84 -67.5h-150v400l200 150l200 -113l200 113l200 -150v-400z" />
    <glyph glyph-name="uni17D2_uni1797.zz02" unicode="&#x17d2;&#x1797;" 
d="M-1100 -650q-75 25 -102.5 62.5t-27.5 87.5q0 45 37 78q38 32 93 32v20q0 270 400 270t400 -270v-280h-150v280q0 120 -250 120t-250 -120v-280h-150z" />
    <glyph glyph-name="uni17D2_uni1798.zz02" unicode="&#x17d2;&#x1798;" 
d="M-949 -494q-100 0 -151 48q-50 49 -50 146q0 50 37 75q38 25 113 25v-100q0 -41 54 -41q7 0 15 1l481 40v200h150v-200q100 0 150 -62.5t50 -137.5t-44 -112q-43 -38 -131 -38t-131 50q-44 50 -44 150l-440 -40h-3q-15 -1 -29 -2.5t-27 -1.5zM-225 -500q0 50 -80 50
q0 -80 39 -80h1q40 0 40 30z" />
    <glyph glyph-name="uni17D2_uni179A.zz05" unicode="&#x17d2;&#x179a;" horiz-adv-x="650" 
d="M400 -300q0 -200 250 -200t250 200v160h150v-160q0 -350 -400 -350t-400 350v1276q0 106 -200 126q152 204 206 398l107 -72q71 -48 130 -48q30 0 57 13q0 -133 -62 -152q-15 -5 -33 -5q-55 0 -134 48l-55 -113q134 -59 134 -195v-1276z" />
    <glyph glyph-name="uni17D2_uni179B.zz02" unicode="&#x17d2;&#x179b;" 
d="M-1260 -450q0 150 75 250t225 100q120 0 202 -71t125 -171t84 -129q40 -29 79 -29t80 100q40 100 62 200l21 100h152q-69 -250 -145 -400q-77 -150 -162 -150q-110 0 -183 59t-110 159t-88.5 141t-116.5 41q-75 0 -112.5 -50t-37.5 -150q0 -60 50 -60t50 60q50 0 75 -25
t25 -75t-38 -75q-37 -25 -112 -25q-100 0 -150 50t-50 150z" />
    <glyph glyph-name="uni17D2_uni179C.zz02" unicode="&#x17d2;&#x179c;" 
d="M-800 -650q-150 0 -225 43.5t-75 140.5v91q180 21 342.5 72t307.5 203q150 0 150 -100q0 -219 -154.5 -334.5t-345.5 -115.5zM-733.5 -431q-101.5 -31 -206.5 -45q0 -40 140 -44q150 0 248 68.5t100 176.5l-5 -4q-13 -11 -26 -21.5t-81 -55t-169.5 -75.5z" />
    <glyph glyph-name="uni17D2_uni17A0.zz02" unicode="&#x17d2;&#x17a0;" 
d="M-1000 -450q0 -50 100 -50t100 50v150q0 100 62 150q63 50 188 50t188 -50q62 -50 62 -150v-350h-150v350q0 50 -100 50t-100 -50v-150q0 -100 -62 -150q-63 -50 -188 -50t-188 50q-62 50 -62 150v350h150v-350z" />
    <glyph glyph-name="uni17D2_uni17A2.zz02" unicode="&#x17d2;&#x17a2;" 
d="M-1165 -525q0 75 80 75v220q0 30 -30 30h-50v100h55q175 0 175 -130v-60h500v60q0 30 -30 30h-50v100h55q175 0 175 -130v-420h-150q-80 79 -80 125q0 75 80 75v60h-500v-260h-150q-80 79 -80 125z" />
    <glyph glyph-name="uni17B7_uni17CD.zz06" unicode="&#x17b7;&#x17cd;" 
d="M-930 1950h390q-119 130 -320 130q-150 0 -150 -80q0 -50 80 -50zM-367 1986l57 -68v-118h-620q-250 0 -250 200q0 250 320 250q107 0 206 -42q11 45 39 83q45 59 175 59q127 0 175 -59q76 25 141 69q64 43 106 115l11 2q19 0 42 -29q15 -20 15 -34t-12 -24
q-45 -63 -105 -113q-61 -49 -136 -86q-36 -11 -70 -11q-74 70 -137 70q-45 0 -72 -28q-28 -29 -28 -66q0 -23 5 -39q10 -8 20 -17q11 -9 21 -18q7 -1 14 -1q50 0 50 18q0 31 70 31t70 -31q0 -59 -44 -89q-24 -16 -63 -24z" />
    <glyph glyph-name="uni1780_uni17B6.liga" unicode="&#x1780;&#x17b6;" horiz-adv-x="2050" 
d="M147 1260l198 120l99 60q100 60 144 60q43 0 130 -34l85 -34l173 -68l142 68l71 34q70 34 115 34q43 0 106 -35l65 -35l189 -98q136 -71 136 -232v-1100h-150v1100q0 72 -51 96l-300 158l-323 -153l-382 151l-238 -146l39 -77l-111 -58l-137 154v35zM1150 0h-150v700
q0 250 -300 250t-300 -250v-700h-150v700q0 400 450 400t450 -400v-700z" />
    <glyph glyph-name="uni1781_uni17B6.liga" unicode="&#x1781;&#x17b6;" horiz-adv-x="2050" 
d="M1142 1201q8 -47 8 -101q0 -262 -453 -489l-297 -148v-63q0 -250 300 -250t300 250v200h150v-200q0 -400 -450 -400t-450 400v155l375 188q375 187 375 357q0 250 -300 250q-256 0 -293 -182q22 -4 44 -15q32 -18 50.5 -50.5t18.5 -67.5t-18 -67t-50 -50t-67 -18t-67 18
t-50 50t-18 67v65q0 400 450 400q290 0 393 -166l261 166l380 -223q66 -38 66 -125v-1152h-150v1152l-301 178z" />
    <glyph glyph-name="uni1782_uni17B6.liga" unicode="&#x1782;&#x17b6;" horiz-adv-x="2050" 
d="M147 1260l198 120l99 60q100 60 144 60q43 0 130 -34l85 -34l173 -68l142 68l71 34q70 34 115 34q43 0 106 -35l65 -35l189 -98q136 -71 136 -232v-1100h-150v1100q0 72 -51 96l-300 158l-323 -153l-382 151l-238 -146l39 -77l-111 -58l-137 154v35zM400 378
q96 122 220 122q130 0 130 -125t-110 -125q0 100 -70 100q-71 0 -120 -125l-50 -125v-100h-150v700q0 400 450 400t450 -400v-700h-150v700q0 250 -300 250t-300 -250v-322z" />
    <glyph glyph-name="uni1783_uni17B6.liga" unicode="&#x1783;&#x17b6;" horiz-adv-x="2700" 
d="M250 1020h-50q-100 0 -100 160q0 320 200 320q100 0 100 -100v-1000q0 -250 275 -250t275 250v576q0 106 -200 126q152 204 206 398l107 -72q71 -48 130 -48q30 0 57 13q0 -133 -62 -152q-15 -5 -33 -5q-55 0 -134 48l-55 -113q134 -59 134 -195v-576q0 -250 275 -250
t275 250v576q0 106 -200 126l478 398l454 -250q68 -38 68 -128v-1122h-150v1122l-354 197l-219 -182q73 -25 73 -161v-576q0 -400 -425 -400q-246 0 -350 135q-104 -135 -350 -135q-425 0 -425 400v620z" />
    <glyph glyph-name="uni1784_uni17B6.liga" unicode="&#x1784;&#x17b6;" horiz-adv-x="2050" 
d="M920 1320q0 60 -50 60q-70 0 -70 -60q0 -34 60 -78q60 31 60 78zM1019 1153q3 -1 6 -3q125 -67 125 -250v-900h-150l-300 293l-300 -293h-150v600q-100 0 -100 140q0 160 150 160q100 0 100 -100v-595l300 293l300 -293v695q0 108 -42 141q-44 24 -80 48
q-142 -89 -278 -89q-178 0 -261 69q-89 75 -89 211q0 85 50 172.5t50 147.5q0 100 -150 100q0 100 100 100q200 0 200 -200q0 -65 -50 -157.5t-50 -162.5q0 -59 55 -94.5t145 -35.5q104 0 160 33q-80 61 -80 137q0 180 190 180q167 0 179 -155l259 155l426 -223
q66 -37 66 -125v-1152h-150v1152l-336 175z" />
    <glyph glyph-name="uni1785_uni17B6.liga" unicode="&#x1785;&#x17b6;" horiz-adv-x="2050" 
d="M147 1260l198 120l99 60q100 60 144 60q43 0 130 -34l85 -34l173 -68l142 68l71 34q70 34 115 34q43 0 106 -35l65 -35l189 -98q136 -71 136 -232v-1100h-150v1100q0 72 -51 96l-300 158l-323 -153l-382 151l-238 -146l39 -77l-137 -31l-111 127v35zM1150 400
q0 -400 -450 -400t-450 400v390q-70 0 -70 110q0 190 160 190q60 0 60 -100v-590q0 -250 300 -250t300 250v350q-100 0 -100 140q0 160 150 160q100 0 100 -100v-550z" />
    <glyph glyph-name="uni1786_uni17B6.liga" unicode="&#x1786;&#x17b6;" horiz-adv-x="2050" 
d="M147 1260l198 120l99 60q100 60 144 60q43 0 130 -34l85 -34l173 -68l142 68l71 34q70 34 115 34q43 0 106 -35l65 -35l189 -98q136 -71 136 -232v-1100h-150v1100q0 72 -51 96l-300 158l-323 -153l-382 151l-238 -146l39 -77l-137 -31l-111 127v35zM1000 750v150
q-40 0 -70 -62t-30 -108q0 -40 50 -40t50 60zM1000 554q-23 -4 -50 -4q-200 0 -200 180q0 105 79 212q79 108 171 108q150 0 150 -150v-650q0 -250 -300 -250t-300 250q0 100 -75 100t-75 -250v-100h-150v790q-70 0 -70 110q0 190 160 190q60 0 60 -100v-503q34 13 75 13
q225 0 225 -250q0 -100 150 -100t150 100v304z" />
    <glyph glyph-name="uni1787_uni17B6.liga" unicode="&#x1787;&#x17b6;" horiz-adv-x="2050" 
d="M760 1200q-132 0 -269 95l-81 55l-110 -78q0 -33 100 -107l-150 -37q-100 52 -100 108v53q0 37 65 80l66 43q111 88 143 88q24 0 147 -76q130 -74 189 -74q240 0 240 186q0 154 -290 154q0 110 140 110q300 0 300 -264q0 -336 -390 -336zM1150 1020v-1020h-150l-300 293
l-300 -293h-150v790q-70 0 -70 110q0 190 160 190q60 0 60 -100v-785l300 293l300 -293v874l388 421l346 -223q66 -42 66 -125v-1152h-150v1152l-240 154z" />
    <glyph glyph-name="uni1788_uni17B6.liga" unicode="&#x1788;&#x17b6;" horiz-adv-x="3300" 
d="M400 300v-150q40 0 70 62t30 108q0 40 -50 40t-50 -60zM2250 976q0 106 -200 126l478 398l454 -250q68 -38 68 -128v-1122h-150v1122l-354 197l-219 -182q73 -25 73 -161v-576q0 -400 -400 -400q-227 0 -325 129q-98 -129 -325 -129q-400 0 -400 400v700q0 250 -275 250
t-275 -250v-604q23 4 50 4q200 0 200 -180q0 -105 -79 -212q-79 -108 -171 -108h-150v1100q0 400 425 400t425 -400v-700q0 -250 250 -250t250 250v576q0 106 -200 126q152 204 206 398l107 -72q71 -48 130 -48q30 0 57 13q0 -133 -62 -152q-15 -5 -33 -5q-55 0 -134 48
l-55 -113q134 -59 134 -195v-576q0 -250 250 -250t250 250v576z" />
    <glyph glyph-name="uni1789_uni17B6.liga" unicode="&#x1789;&#x17b6;" horiz-adv-x="2700" 
d="M1575 -379q75 43 75 113q0 53 -65 53q-62 0 -62 57q0 56 62 56q215 0 215 -166q0 -139 -115 -220q-161 -114 -546 -114q-280 0 -494 98q-207 94 -354 277q-41 42 -41 84q0 41 52 41q51 0 82 -41q144 -153 332 -231q189 -78 423 -78q316 0 436 71zM400 300v-150
q40 0 70 62t30 108q0 40 -50 40t-50 -60zM1778 1219q22 -37 22 -84v-1135h-150v1139l-269 167l-231 -223v-1083h-150v1153l-121 132l-180 -165l-180 165l-119 -132v-657q23 4 50 4q200 0 200 -180q0 -105 -79 -212q-79 -108 -171 -108h-150v1135q0 76 65 150l194 215
l190 -178l190 178l194 -215q14 -16 25 -32l257 247l291 -183l332 183l401 -221q61 -39 61 -117v-1162h-150v1162l-312 184z" />
    <glyph glyph-name="uni178A_uni17B6.liga" unicode="&#x178a;&#x17b6;" horiz-adv-x="2050" 
d="M180 1420q0 120 130 120q129 0 129 -120q0 -88 -79 -98q60 -72 228 -72q407 0 407 240q0 180 -354 210q0 100 132 100q377 0 377 -310q0 -390 -562 -390q-199 0 -303.5 80t-104.5 240zM1150 1020v-1020h-150l-300 293l-300 -293h-150v790q-70 0 -70 110q0 190 160 190
q60 0 60 -100v-785l300 293l300 -293v874l388 421l346 -223q66 -42 66 -125v-1152h-150v1152l-240 154z" />
    <glyph glyph-name="uni178B_uni17B6.liga" unicode="&#x178b;&#x17b6;" horiz-adv-x="2050" 
d="M250 1020h-50q-100 0 -100 160q0 320 200 320q100 0 100 -100v-1000q0 -250 300 -250t300 250v576q0 106 -200 126q132 204 166 398l127 -72q13 -8 24 -8q33 0 33 80q0 90 -49.5 140.5t-189.5 51.5q62 108 144 108t163.5 -65.5t81.5 -234.5v-5l8 5l426 -223
q66 -37 66 -125v-1152h-150v1152l-336 175l-58 -35q-13 -17 -28 -26q-30 -19 -68 -19q-52 0 -119 37l-35 -113q144 -59 144 -195v-576q0 -400 -450 -400t-450 400v620z" />
    <glyph glyph-name="uni178C_uni17B6.liga" unicode="&#x178c;&#x17b6;" horiz-adv-x="2050" 
d="M1129 1217q21 -55 21 -117q0 -273 -170 -418l-511 -429l105 -64l320 263q106 92 106 148h150v-600h-150v349l-413 -349l-239 152q-67 44 -67 92q0 45 59 93l530 443q130 120 130 320q0 100 -131 200l-167 -130l-166 130q-136 -100 -136 -200q0 -150 134 -150q96 0 96 50
q0 80 75 80t75 -80q0 -200 -248 -200q-282 0 -282 300q0 110 68 196l193 204l189 -160l192 160l150 -159l266 159l426 -223q66 -37 66 -125v-1152h-150v1152l-336 175z" />
    <glyph glyph-name="uni178D_uni17B6.liga" unicode="&#x178d;&#x17b6;" horiz-adv-x="2750" 
d="M400 300v-150q40 0 70 62t30 108q0 40 -50 40t-50 -60zM1850 250q0 -250 -275 -250t-275 250q0 100 -75 100t-75 -250v-100h-150v1153l-121 132l-180 -165l-180 165l-119 -132v-657q23 4 50 4q200 0 200 -180q0 -105 -79 -212q-79 -108 -171 -108h-150v1135q0 76 65 150
l194 215l190 -178l190 178l194 -215q67 -74 67 -150v-648q34 13 75 13q225 0 225 -250q0 -100 125 -100t125 100v726q0 106 -200 126l478 398l454 -250q68 -38 68 -128v-1122h-150v1122l-354 197l-219 -182q73 -25 73 -161v-726z" />
    <glyph glyph-name="uni178E_uni17B6.liga" unicode="&#x178e;&#x17b6;" horiz-adv-x="3450" 
d="M400 300v-150q40 0 70 62t30 108q0 40 -50 40t-50 -60zM2496 1173q4 -35 4 -73v-1100h-150v1100q0 250 -275 250t-275 -250v-1100h-150l-275 269l-275 -269h-150v1100q0 250 -275 250t-275 -250v-604q23 4 50 4q200 0 200 -180q0 -105 -79 -212q-79 -108 -171 -108h-150
v1100q0 400 425 400t425 -400v-895l275 269l275 -269v895q0 400 425 400q292 0 383 -189l296 189l380 -223q66 -38 66 -125v-1152h-150v1152l-301 178z" />
    <glyph glyph-name="uni178F_uni17B6.liga" unicode="&#x178f;&#x17b6;" horiz-adv-x="2050" 
d="M147 1260l198 120l99 60q100 60 144 60q43 0 130 -34l85 -34l173 -68l142 68l71 34q70 34 115 34q43 0 106 -35l65 -35l189 -98q136 -71 136 -232v-1100h-150v1100q0 72 -51 96l-300 158l-323 -153l-382 151l-238 -146l39 -77l-111 -58l-137 154v35zM400 496q23 4 50 4
q200 0 200 -180q0 -105 -79 -212q-79 -108 -171 -108h-150v700q0 400 450 400t450 -400v-700h-150v700q0 250 -300 250t-300 -250v-204zM400 150q40 0 70 62t30 108q0 40 -50 40t-50 -60v-150z" />
    <glyph glyph-name="uni1790_uni17B6.liga" unicode="&#x1790;&#x17b6;" horiz-adv-x="2050" 
d="M760 1200q-132 0 -269 95l-81 55l-110 -78q0 -33 100 -107l-150 -37q-100 52 -100 108v53q0 37 65 80l66 43q111 88 143 88q24 0 147 -76q130 -74 189 -74q240 0 240 186q0 154 -290 154q0 110 140 110q300 0 300 -264q0 -336 -390 -336zM1138 1007q12 -23 12 -57v-550
q0 -400 -450 -400t-450 400v390q-70 0 -70 110q0 190 160 190q60 0 60 -100v-590q0 -250 300 -250t300 250v350q-100 0 -100 140q0 148 101 189l387 421l346 -223q66 -42 66 -125v-1152h-150v1152l-240 154z" />
    <glyph glyph-name="uni1791_uni17B6.liga" unicode="&#x1791;&#x17b6;" horiz-adv-x="2050" 
d="M950 680q50 0 50 25t-25 25t-25 -50zM1142 1201q8 -47 8 -101q0 -35 -18 -67t-50 -50t-67 -18t-67 18t-50 50t-18 67t18 67.5t51 50.5q11 6 23 10q-62 122 -272 122q-300 0 -300 -335t400 -335q0 200 175 200t175 -175t-200 -175v-230q0 -300 -275 -300t-275 300v170h150
v-170q0 -150 125 -150t125 150v230q-550 0 -550 485t450 485q290 0 393 -166l261 166l380 -223q66 -38 66 -125v-1152h-150v1152l-301 178z" />
    <glyph glyph-name="uni1792_uni17B6.liga" unicode="&#x1792;&#x17b6;" horiz-adv-x="2050" 
d="M147 1260l198 120l99 60q100 60 144 60q43 0 130 -34l85 -34l173 -68l142 68l71 34q70 34 115 34q43 0 106 -35l65 -35l189 -98q136 -71 136 -232v-1100h-150v1100q0 72 -51 96l-300 158l-323 -153l-382 151l-238 -146l39 -77l-137 -31l-111 127v35zM1150 0h-150
l-300 293l-300 -293h-150v790q-70 0 -70 110q0 190 160 190q60 0 60 -100v-785l300 293l300 -293v545q-100 0 -100 140q0 160 150 160q100 0 100 -100v-950z" />
    <glyph glyph-name="uni1793_uni17B6.liga" unicode="&#x1793;&#x17b6;" horiz-adv-x="2050" 
d="M1142 1201q8 -47 8 -101v-65q0 -35 -18 -67t-50 -50t-67 -18t-67 18t-50 50t-18 67t18.5 67.5t50.5 50.5q22 11 44 15q-37 182 -293 182q-300 0 -300 -250q0 -186 379 -353l371 -164v-283q0 -300 -255 -300q-131 0 -240 125t-255 125v-250h-150v600h150v-200
q175 0 294.5 -125t200.5 -125q105 0 105 150v185l-287 127q-463 205 -463 488q0 400 450 400q290 0 393 -166l261 166l380 -223q66 -38 66 -125v-1152h-150v1152l-301 178z" />
    <glyph glyph-name="uni1794_uni17B6.liga" unicode="&#x1794;&#x17b6;" horiz-adv-x="2050" 
d="M147 1260l198 120l99 60q100 60 144 60q43 0 130 -34l85 -34l173 -68l142 68l71 34q70 34 115 34q43 0 106 -35l65 -35l189 -98q136 -71 136 -232v-1100h-150v1100q0 72 -51 96l-300 158l-323 -153l-382 151l-238 -146l39 -77l-137 -31l-111 127v35zM700 0
q-450 0 -450 400v390q-70 0 -70 110q0 190 160 190q60 0 60 -100v-590q0 -250 300 -250t300 250v650h150v-1200h-150v221q-110 -71 -300 -71z" />
    <glyph glyph-name="uni1795_uni17B6.liga" unicode="&#x1795;&#x17b6;" horiz-adv-x="2050" 
d="M1000 750v150q-40 0 -70 -62t-30 -108q0 -40 50 -40t50 60zM760 1200q-132 0 -269 95l-81 55l-110 -78q0 -33 100 -107l-150 -37q-100 52 -100 108v53q0 37 65 80l66 43q111 88 143 88q24 0 147 -76q130 -74 189 -74q240 0 240 186q0 154 -290 154q0 110 140 110
q300 0 300 -264q0 -336 -390 -336zM1126 996q24 -36 24 -96v-900h-150l-77 75l-223 218l-223 -218l-77 -75h-150v790q-70 0 -70 110q0 190 160 190q60 0 60 -100v-785l300 293l300 -293v349q-23 -4 -50 -4q-200 0 -200 180q0 105 79 212q66 90 140 105l419 453l346 -223
q66 -42 66 -125v-1152h-150v1152l-240 154z" />
    <glyph glyph-name="uni1796_uni17B6.liga" unicode="&#x1796;&#x17b6;" horiz-adv-x="2050" 
d="M400 300v-150q40 0 70 62t30 108q0 40 -50 40t-50 -60zM1150 0h-150v1153l-121 132l-180 -165l-180 165l-119 -132v-657q23 4 50 4q200 0 200 -180q0 -105 -79 -212q-79 -108 -171 -108h-150v1135q0 76 65 150l194 215l190 -178l190 178l194 -215q14 -16 25 -32l257 247
l354 -223q81 -51 81 -142v-1135h-150v1139l-269 167l-231 -223v-1083z" />
    <glyph glyph-name="uni1797_uni17B6.liga" unicode="&#x1797;&#x17b6;" horiz-adv-x="2050" 
d="M147 1260l198 120l99 60q100 60 144 60q43 0 130 -34l85 -34l173 -68l142 68l71 34q70 34 115 34q43 0 106 -35l65 -35l189 -98q136 -71 136 -232v-1100h-150v1100q0 72 -51 96l-300 158l-323 -153l-382 151l-238 -146l39 -77l-111 -58l-137 154v35zM250 0q-20 0 -85 115
t-65 225q0 140 100 140h50v220q0 400 450 400t450 -400v-700h-150v700q0 250 -300 250t-300 -250v-700h-150z" />
    <glyph glyph-name="uni1798_uni17B6.liga" unicode="&#x1798;&#x17b6;" horiz-adv-x="2050" 
d="M1150 400q0 -400 -450 -400t-450 400v576q0 106 -200 126q152 204 206 398l107 -72q71 -48 130 -48q30 0 57 13q0 -133 -62 -152q-15 -5 -33 -5q-55 0 -134 48l-55 -113q134 -59 134 -195v-206h600v206q0 106 -200 126l478 398l454 -250q68 -38 68 -128v-1122h-150v1122
l-354 197l-219 -182q73 -25 73 -161v-576zM1000 620h-600v-220q0 -250 300 -250t300 250v220z" />
    <glyph glyph-name="uni1799_uni17B6.liga" unicode="&#x1799;&#x17b6;" horiz-adv-x="2700" 
d="M1650 976q0 106 -200 126l478 398l454 -250q68 -38 68 -128v-1122h-150v1122l-354 197l-219 -182q73 -25 73 -161v-576q0 -400 -425 -400q-246 0 -350 135q-104 -135 -350 -135q-425 0 -425 400v1000q0 100 100 100q200 0 200 -320q0 -160 -100 -160h-50v-620
q0 -250 275 -250t275 250v576q0 106 -200 126q152 204 206 398l107 -72q71 -48 130 -48q30 0 57 13q0 -133 -62 -152q-15 -5 -33 -5q-55 0 -134 48l-55 -113q134 -59 134 -195v-576q0 -250 275 -250t275 250v576z" />
    <glyph glyph-name="uni179A_uni17B6.liga" unicode="&#x179a;&#x17b6;" horiz-adv-x="1300" 
d="M900 1128q0 20 -43 72l-71 85q-47 55 -82 55q-65 -96 -172 -107q-17 -2 -33 -2q-90 0 -178 53l-55 -113q134 -59 134 -195v-976h-170q-130 230 -130 340q0 140 100 140h50v496q0 106 -200 126q152 204 206 398l107 -72q69 -46 131 -46q34 0 67 14q90 40 145 104
q110 -20 173 -91l86 -105q85 -106 85 -176v-1128h-150v1128z" />
    <glyph glyph-name="uni179B_uni17B6.liga" unicode="&#x179b;&#x17b6;" horiz-adv-x="2650" 
d="M400 300v-150q40 0 70 62t30 108q0 40 -50 40t-50 -60zM1600 976q0 106 -200 126l478 398l454 -250q68 -38 68 -128v-1122h-150v1122l-354 197l-219 -182q73 -25 73 -161v-576q0 -400 -400 -400t-400 400v700q0 250 -275 250t-275 -250v-604q23 4 50 4q200 0 200 -180
q0 -105 -79 -212q-79 -108 -171 -108h-150v1100q0 400 425 400t425 -400v-700q0 -250 250 -250t250 250v576z" />
    <glyph glyph-name="uni179C_uni17B6.liga" unicode="&#x179c;&#x17b6;" horiz-adv-x="1300" 
d="M506 1292q-13 -17 -28 -26q-30 -19 -68 -19q-52 0 -119 37l-35 -113q144 -59 144 -195v-976h-170q-130 230 -130 340q0 140 100 140h50v496q0 106 -200 126q132 204 166 398l127 -72q13 -8 24 -8q33 0 33 80q0 90 -49.5 140.5t-189.5 51.5q62 108 144 108t163.5 -65.5
t81.5 -234.5v-5l8 5l426 -223q66 -37 66 -125v-1152h-150v1152l-336 175z" />
    <glyph glyph-name="uni179D_uni17B6.liga" unicode="&#x179d;&#x17b6;" horiz-adv-x="2050" 
d="M147 1260l198 120l99 60q100 60 144 60q43 0 130 -34l85 -34l173 -68l142 68l71 34q70 34 115 34q43 0 106 -35l65 -35l189 -98q136 -71 136 -232v-1100h-150v1100q0 72 -51 96l-300 158l-323 -153l-382 151l-238 -146l39 -77l-111 -58l-137 154v35zM1150 499h150v-150
h-150v-349h-150v349h-200v150h200v201q0 250 -300 250t-300 -250v-322q96 122 220 122q130 0 130 -125t-110 -125q0 100 -70 100q-71 0 -120 -125l-50 -125v-100h-150v700q0 400 450 400t450 -400v-201z" />
    <glyph glyph-name="uni179E_uni17B6.liga" unicode="&#x179e;&#x17b6;" horiz-adv-x="2050" 
d="M147 1260l198 120l99 60q100 60 144 60q43 0 130 -34l85 -34l173 -68l142 68l71 34q70 34 115 34q43 0 106 -35l65 -35l189 -98q136 -71 136 -232v-1100h-150v1100q0 72 -51 96l-300 158l-323 -153l-382 151l-238 -146l39 -77l-137 -31l-111 127v35zM1000 599h-200v150
h200v301h150v-301h150v-150h-150v-749h-150v221q-110 -71 -300 -71q-450 0 -450 400v390q-70 0 -70 110q0 190 160 190q60 0 60 -100v-590q0 -250 300 -250t300 250v199z" />
    <glyph glyph-name="uni179F_uni17B6.liga" unicode="&#x179f;&#x17b6;" horiz-adv-x="2650" 
d="M400 300v-150q40 0 70 62t30 108q0 40 -50 40t-50 -60zM1600 976q0 106 -200 126l478 398l454 -250q68 -38 68 -128v-1122h-150v1122l-354 197l-219 -182q73 -25 73 -161v-576q0 -400 -400 -400t-400 400v300q0 250 -275 250t-275 -250v-204q23 4 50 4q200 0 200 -180
q0 -105 -79 -212q-79 -108 -171 -108h-150v700q0 293 228 371l-6 8q-35 50 -210 65q249 251 277 356l144 -70q95 -48 174 -48q41 0 78 13q0 -133 -83 -152q-12 -2 -26 -2q-87 0 -229 65l-84 -93q56 -24 86 -58l48 -55h28q425 0 425 -400v-300q0 -250 250 -250t250 250v576z
" />
    <glyph glyph-name="uni17A0_uni17B6.liga" unicode="&#x17a0;&#x17b6;" horiz-adv-x="2700" 
d="M1792 1201q8 -47 8 -101v-1100h-150v1100q0 250 -275 250t-275 -250v-700q0 -400 -425 -400t-425 400v576q0 106 -200 126q152 204 206 398l107 -72q71 -48 130 -48q30 0 57 13q0 -133 -62 -152q-15 -5 -33 -5q-55 0 -134 48l-55 -113q134 -59 134 -195v-576
q0 -250 275 -250t275 250v700q0 400 425 400q273 0 371 -165l258 165l380 -223q66 -38 66 -125v-1152h-150v1152l-301 178z" />
    <glyph glyph-name="uni17A1_uni17B6.liga" unicode="&#x17a1;&#x17b6;" horiz-adv-x="2700" 
d="M1650 -445v1421q0 106 -200 126l478 398l454 -250q68 -38 68 -128v-1122h-150v1122l-354 197l-219 -182q73 -25 73 -161v-1626h-150l-250 245l-250 -245h-150v350q-100 0 -100 125t135 125h115v-395l250 245zM950 680q50 0 50 25t-25 25t-25 -50zM972 1228
q-62 122 -272 122q-300 0 -300 -335t400 -335q0 200 175 200t175 -175t-200 -175v-230q0 -300 -275 -300t-275 300v170h150v-170q0 -150 125 -150t125 150v230q-550 0 -550 485t450 485t450 -400q0 -35 -18 -67t-50 -50t-67 -18t-67 18t-50 50t-18 67t18 67.5t51 50.5
q11 6 23 10z" />
    <glyph glyph-name="uni17A2_uni17B6.liga" unicode="&#x17a2;&#x17b6;" horiz-adv-x="2050" 
d="M1800 0h-150v1122l-354 197l-219 -182q73 -25 73 -161v-976h-170q-130 230 -130 340q0 140 100 140h50v190h-600v-670h-170q-130 230 -130 340q0 140 100 140h50v496q0 106 -200 126q152 204 206 398l107 -72q71 -48 130 -48q30 0 57 13q0 -133 -62 -152q-15 -5 -33 -5
q-55 0 -134 48l-55 -113q134 -59 134 -195v-156h600v156q0 106 -200 126l478 398l454 -250q68 -38 68 -128v-1122z" />
    <glyph glyph-name="uni1780_uni17C5.liga" unicode="&#x1780;&#x17c5;" horiz-adv-x="2050" 
d="M1150 0h-150v700q0 250 -300 250t-300 -250v-700h-150v700q0 400 450 400t450 -400v-700zM1650 1100q0 72 -51 96l-300 158l-323 -153l-382 151l-238 -146l39 -77l-111 -58l-137 154v35l198 120l99 60q100 60 144 60q43 0 130 -34l85 -34l173 -68l142 68l71 34
q70 34 115 34q43 0 106 -35l65 -35l175 -91v331q0 80 -105 100t-105 130h115q245 0 245 -230v-1670h-150v1100z" />
    <glyph glyph-name="uni1781_uni17C5.liga" unicode="&#x1781;&#x17c5;" horiz-adv-x="2050" 
d="M1650 1152l-301 178l-207 -129q8 -47 8 -101q0 -262 -453 -489l-297 -148v-63q0 -250 300 -250t300 250v200h150v-200q0 -400 -450 -400t-450 400v155l375 188q375 187 375 357q0 250 -300 250q-256 0 -293 -182q22 -4 44 -15q32 -18 50.5 -50.5t18.5 -67.5t-18 -67
t-50 -50t-67 -18t-67 18t-50 50t-18 67v65q0 400 450 400q290 0 393 -166l261 166l296 -174v344q0 80 -105 100t-105 130h115q245 0 245 -230v-1670h-150v1152z" />
    <glyph glyph-name="uni1782_uni17C5.liga" unicode="&#x1782;&#x17c5;" horiz-adv-x="2050" 
d="M400 378q96 122 220 122q130 0 130 -125t-110 -125q0 100 -70 100q-71 0 -120 -125l-50 -125v-100h-150v700q0 400 450 400t450 -400v-700h-150v700q0 250 -300 250t-300 -250v-322zM1650 1100q0 72 -51 96l-300 158l-323 -153l-382 151l-238 -146l39 -77l-111 -58
l-137 154v35l198 120l99 60q100 60 144 60q43 0 130 -34l85 -34l173 -68l142 68l71 34q70 34 115 34q43 0 106 -35l65 -35l175 -91v331q0 80 -105 100t-105 130h115q245 0 245 -230v-1670h-150v1100z" />
    <glyph glyph-name="uni1783_uni17C5.liga" unicode="&#x1783;&#x17c5;" horiz-adv-x="2700" 
d="M2300 1122l-354 197l-219 -182q73 -25 73 -161v-576q0 -400 -425 -400q-246 0 -350 135q-104 -135 -350 -135q-425 0 -425 400v620h-50q-100 0 -100 160q0 320 200 320q100 0 100 -100v-1000q0 -250 275 -250t275 250v576q0 106 -200 126q152 204 206 398l107 -72
q71 -48 130 -48q30 0 57 13q0 -133 -62 -152q-15 -5 -33 -5q-55 0 -134 48l-55 -113q134 -59 134 -195v-576q0 -250 275 -250t275 250v576q0 106 -200 126l478 398l372 -205v375q0 80 -105 100t-105 130h115q245 0 245 -230v-1670h-150v1122z" />
    <glyph glyph-name="uni1784_uni17C5.liga" unicode="&#x1784;&#x17c5;" horiz-adv-x="2050" 
d="M920 1320q0 60 -50 60q-70 0 -70 -60q0 -34 60 -78q60 31 60 78zM1650 1152l-336 175l-295 -174q3 -1 6 -3q125 -67 125 -250v-900h-150l-300 293l-300 -293h-150v600q-100 0 -100 140q0 160 150 160q100 0 100 -100v-595l300 293l300 -293v695q0 108 -42 141
q-44 24 -80 48q-142 -89 -278 -89q-178 0 -261 69q-89 75 -89 211q0 85 50 172.5t50 147.5q0 100 -150 100q0 100 100 100q200 0 200 -200q0 -65 -50 -157.5t-50 -162.5q0 -59 55 -94.5t145 -35.5q104 0 160 33q-80 61 -80 137q0 180 190 180q167 0 179 -155l259 155
l342 -179v349q0 80 -105 100t-105 130h115q245 0 245 -230v-1670h-150v1152z" />
    <glyph glyph-name="uni1785_uni17C5.liga" unicode="&#x1785;&#x17c5;" horiz-adv-x="2050" 
d="M1150 400q0 -400 -450 -400t-450 400v390q-70 0 -70 110q0 190 160 190q60 0 60 -100v-590q0 -250 300 -250t300 250v350q-100 0 -100 140q0 160 150 160q100 0 100 -100v-550zM1650 1100q0 72 -51 96l-300 158l-323 -153l-382 151l-238 -146l39 -77l-137 -31l-111 127
v35l198 120l99 60q100 60 144 60q43 0 130 -34l85 -34l173 -68l142 68l71 34q70 34 115 34q43 0 106 -35l65 -35l175 -91v331q0 80 -105 100t-105 130h115q245 0 245 -230v-1670h-150v1100z" />
    <glyph glyph-name="uni1786_uni17C5.liga" unicode="&#x1786;&#x17c5;" horiz-adv-x="2050" 
d="M1000 750v150q-40 0 -70 -62t-30 -108q0 -40 50 -40t50 60zM1000 554q-23 -4 -50 -4q-200 0 -200 180q0 105 79 212q79 108 171 108q150 0 150 -150v-650q0 -250 -300 -250t-300 250q0 100 -75 100t-75 -250v-100h-150v790q-70 0 -70 110q0 190 160 190q60 0 60 -100
v-503q34 13 75 13q225 0 225 -250q0 -100 150 -100t150 100v304zM1650 1100q0 72 -51 96l-300 158l-323 -153l-382 151l-238 -146l39 -77l-137 -31l-111 127v35l198 120l99 60q100 60 144 60q43 0 130 -34l85 -34l173 -68l142 68l71 34q70 34 115 34q43 0 106 -35l65 -35
l175 -91v331q0 80 -105 100t-105 130h115q245 0 245 -230v-1670h-150v1100z" />
    <glyph glyph-name="uni1787_uni17C5.liga" unicode="&#x1787;&#x17c5;" horiz-adv-x="2050" 
d="M760 1200q-132 0 -269 95l-81 55l-110 -78q0 -33 100 -107l-150 -37q-100 52 -100 108v53q0 37 65 80l66 43q111 88 143 88q24 0 147 -76q130 -74 189 -74q240 0 240 186q0 154 -290 154q0 110 140 110q300 0 300 -264q0 -336 -390 -336zM1650 1152l-240 154l-260 -286
v-1020h-150l-300 293l-300 -293h-150v790q-70 0 -70 110q0 190 160 190q60 0 60 -100v-785l300 293l300 -293v874l388 421l262 -169v339q0 80 -105 100t-105 130h115q245 0 245 -230v-1670h-150v1152z" />
    <glyph glyph-name="uni1788_uni17C5.liga" unicode="&#x1788;&#x17c5;" horiz-adv-x="3300" 
d="M400 300v-150q40 0 70 62t30 108q0 40 -50 40t-50 -60zM2900 1122l-354 197l-219 -182q73 -25 73 -161v-576q0 -400 -400 -400q-227 0 -325 129q-98 -129 -325 -129q-400 0 -400 400v700q0 250 -275 250t-275 -250v-604q23 4 50 4q200 0 200 -180q0 -105 -79 -212
q-79 -108 -171 -108h-150v1100q0 400 425 400t425 -400v-700q0 -250 250 -250t250 250v576q0 106 -200 126q152 204 206 398l107 -72q71 -48 130 -48q30 0 57 13q0 -133 -62 -152q-15 -5 -33 -5q-55 0 -134 48l-55 -113q134 -59 134 -195v-576q0 -250 250 -250t250 250v576
q0 106 -200 126l478 398l372 -205v375q0 80 -105 100t-105 130h115q245 0 245 -230v-1670h-150v1122z" />
    <glyph glyph-name="uni1789_uni17C5.liga" unicode="&#x1789;&#x17c5;" horiz-adv-x="2700" 
d="M1575 -379q75 43 75 113q0 53 -65 53q-62 0 -62 57q0 56 62 56q215 0 215 -166q0 -139 -115 -220q-161 -114 -546 -114q-280 0 -494 98q-207 94 -354 277q-41 42 -41 84q0 41 52 41q51 0 82 -41q144 -153 332 -231q189 -78 423 -78q316 0 436 71zM400 300v-150
q40 0 70 62t30 108q0 40 -50 40t-50 -60zM2300 1162l-312 184l-210 -127q22 -37 22 -84v-1135h-150v1139l-269 167l-231 -223v-1083h-150v1153l-121 132l-180 -165l-180 165l-119 -132v-657q23 4 50 4q200 0 200 -180q0 -105 -79 -212q-79 -108 -171 -108h-150v1135
q0 76 65 150l194 215l190 -178l190 178l194 -215q14 -16 25 -32l257 247l291 -183l332 183l312 -172v342q0 80 -105 100t-105 130h115q245 0 245 -230v-1670h-150v1162z" />
    <glyph glyph-name="uni178A_uni17C5.liga" unicode="&#x178a;&#x17c5;" horiz-adv-x="2050" 
d="M180 1420q0 120 130 120q129 0 129 -120q0 -88 -79 -98q60 -72 228 -72q407 0 407 240q0 180 -354 210q0 100 132 100q377 0 377 -310q0 -390 -562 -390q-199 0 -303.5 80t-104.5 240zM1650 1152l-240 154l-260 -286v-1020h-150l-300 293l-300 -293h-150v790
q-70 0 -70 110q0 190 160 190q60 0 60 -100v-785l300 293l300 -293v874l388 421l262 -169v339q0 80 -105 100t-105 130h115q245 0 245 -230v-1670h-150v1152z" />
    <glyph glyph-name="uni178B_uni17C5.liga" unicode="&#x178b;&#x17c5;" horiz-adv-x="2050" 
d="M1650 1152l-336 175l-58 -35q-13 -17 -28 -26q-30 -19 -68 -19q-52 0 -119 37l-35 -113q144 -59 144 -195v-576q0 -400 -450 -400t-450 400v620h-50q-100 0 -100 160q0 320 200 320q100 0 100 -100v-1000q0 -250 300 -250t300 250v576q0 106 -200 126q132 204 166 398
l127 -72q13 -8 24 -8q33 0 33 80q0 90 -49.5 140.5t-189.5 51.5q62 108 144 108t163.5 -65.5t81.5 -234.5v-5l8 5l342 -179v349q0 80 -105 100t-105 130h115q245 0 245 -230v-1670h-150v1152z" />
    <glyph glyph-name="uni178C_uni17C5.liga" unicode="&#x178c;&#x17c5;" horiz-adv-x="2050" 
d="M1650 1152l-336 175l-185 -110q21 -55 21 -117q0 -273 -170 -418l-511 -429l105 -64l320 263q106 92 106 148h150v-600h-150v349l-413 -349l-239 152q-67 44 -67 92q0 45 59 93l530 443q130 120 130 320q0 100 -131 200l-167 -130l-166 130q-136 -100 -136 -200
q0 -150 134 -150q96 0 96 50q0 80 75 80t75 -80q0 -200 -248 -200q-282 0 -282 300q0 110 68 196l193 204l189 -160l192 160l150 -159l266 159l342 -179v349q0 80 -105 100t-105 130h115q245 0 245 -230v-1670h-150v1152z" />
    <glyph glyph-name="uni178D_uni17C5.liga" unicode="&#x178d;&#x17c5;" horiz-adv-x="2750" 
d="M400 300v-150q40 0 70 62t30 108q0 40 -50 40t-50 -60zM2350 1122l-354 197l-219 -182q73 -25 73 -161v-726q0 -250 -275 -250t-275 250q0 100 -75 100t-75 -250v-100h-150v1153l-121 132l-180 -165l-180 165l-119 -132v-657q23 4 50 4q200 0 200 -180q0 -105 -79 -212
q-79 -108 -171 -108h-150v1135q0 76 65 150l194 215l190 -178l190 178l194 -215q67 -74 67 -150v-648q34 13 75 13q225 0 225 -250q0 -100 125 -100t125 100v726q0 106 -200 126l478 398l372 -205v375q0 80 -105 100t-105 130h115q245 0 245 -230v-1670h-150v1122z" />
    <glyph glyph-name="uni178E_uni17C5.liga" unicode="&#x178e;&#x17c5;" horiz-adv-x="3450" 
d="M400 300v-150q40 0 70 62t30 108q0 40 -50 40t-50 -60zM3050 1152l-301 178l-253 -157q4 -35 4 -73v-1100h-150v1100q0 250 -275 250t-275 -250v-1100h-150l-275 269l-275 -269h-150v1100q0 250 -275 250t-275 -250v-604q23 4 50 4q200 0 200 -180q0 -105 -79 -212
q-79 -108 -171 -108h-150v1100q0 400 425 400t425 -400v-895l275 269l275 -269v895q0 400 425 400q292 0 383 -189l296 189l296 -174v344q0 80 -105 100t-105 130h115q245 0 245 -230v-1670h-150v1152z" />
    <glyph glyph-name="uni178F_uni17C5.liga" unicode="&#x178f;&#x17c5;" horiz-adv-x="2050" 
d="M400 150q40 0 70 62t30 108q0 40 -50 40t-50 -60v-150zM400 496q23 4 50 4q200 0 200 -180q0 -105 -79 -212q-79 -108 -171 -108h-150v700q0 400 450 400t450 -400v-700h-150v700q0 250 -300 250t-300 -250v-204zM1650 1100q0 72 -51 96l-300 158l-323 -153l-382 151
l-238 -146l39 -77l-111 -58l-137 154v35l198 120l99 60q100 60 144 60q43 0 130 -34l85 -34l173 -68l142 68l71 34q70 34 115 34q43 0 106 -35l65 -35l175 -91v331q0 80 -105 100t-105 130h115q245 0 245 -230v-1670h-150v1100z" />
    <glyph glyph-name="uni1790_uni17C5.liga" unicode="&#x1790;&#x17c5;" horiz-adv-x="2050" 
d="M760 1200q-132 0 -269 95l-81 55l-110 -78q0 -33 100 -107l-150 -37q-100 52 -100 108v53q0 37 65 80l66 43q111 88 143 88q24 0 147 -76q130 -74 189 -74q240 0 240 186q0 154 -290 154q0 110 140 110q300 0 300 -264q0 -336 -390 -336zM1650 1152l-240 154l-272 -299
q12 -23 12 -57v-550q0 -400 -450 -400t-450 400v390q-70 0 -70 110q0 190 160 190q60 0 60 -100v-590q0 -250 300 -250t300 250v350q-100 0 -100 140q0 148 101 189l387 421l262 -169v339q0 80 -105 100t-105 130h115q245 0 245 -230v-1670h-150v1152z" />
    <glyph glyph-name="uni1791_uni17C5.liga" unicode="&#x1791;&#x17c5;" horiz-adv-x="2050" 
d="M950 680q50 0 50 25t-25 25t-25 -50zM1650 1152l-301 178l-207 -129q8 -47 8 -101q0 -35 -18 -67t-50 -50t-67 -18t-67 18t-50 50t-18 67t18 67.5t51 50.5q11 6 23 10q-62 122 -272 122q-300 0 -300 -335t400 -335q0 200 175 200t175 -175t-200 -175v-230
q0 -300 -275 -300t-275 300v170h150v-170q0 -150 125 -150t125 150v230q-550 0 -550 485t450 485q290 0 393 -166l261 166l296 -174v344q0 80 -105 100t-105 130h115q245 0 245 -230v-1670h-150v1152z" />
    <glyph glyph-name="uni1792_uni17C5.liga" unicode="&#x1792;&#x17c5;" horiz-adv-x="2050" 
d="M1150 0h-150l-300 293l-300 -293h-150v790q-70 0 -70 110q0 190 160 190q60 0 60 -100v-785l300 293l300 -293v545q-100 0 -100 140q0 160 150 160q100 0 100 -100v-950zM1650 1100q0 72 -51 96l-300 158l-323 -153l-382 151l-238 -146l39 -77l-137 -31l-111 127v35
l198 120l99 60q100 60 144 60q43 0 130 -34l85 -34l173 -68l142 68l71 34q70 34 115 34q43 0 106 -35l65 -35l175 -91v331q0 80 -105 100t-105 130h115q245 0 245 -230v-1670h-150v1100z" />
    <glyph glyph-name="uni1793_uni17C5.liga" unicode="&#x1793;&#x17c5;" horiz-adv-x="2050" 
d="M1650 1152l-301 178l-207 -129q8 -47 8 -101v-65q0 -35 -18 -67t-50 -50t-67 -18t-67 18t-50 50t-18 67t18.5 67.5t50.5 50.5q22 11 44 15q-37 182 -293 182q-300 0 -300 -250q0 -186 379 -353l371 -164v-283q0 -300 -255 -300q-131 0 -240 125t-255 125v-250h-150v600
h150v-200q175 0 294.5 -125t200.5 -125q105 0 105 150v185l-287 127q-463 205 -463 488q0 400 450 400q290 0 393 -166l261 166l296 -174v344q0 80 -105 100t-105 130h115q245 0 245 -230v-1670h-150v1152z" />
    <glyph glyph-name="uni1794_uni17C5.liga" unicode="&#x1794;&#x17c5;" horiz-adv-x="2050" 
d="M700 0q-450 0 -450 400v390q-70 0 -70 110q0 190 160 190q60 0 60 -100v-590q0 -250 300 -250t300 250v650h150v-1200h-150v221q-110 -71 -300 -71zM1650 1100q0 72 -51 96l-300 158l-323 -153l-382 151l-238 -146l39 -77l-137 -31l-111 127v35l198 120l99 60
q100 60 144 60q43 0 130 -34l85 -34l173 -68l142 68l71 34q70 34 115 34q43 0 106 -35l65 -35l175 -91v331q0 80 -105 100t-105 130h115q245 0 245 -230v-1670h-150v1100z" />
    <glyph glyph-name="uni1795_uni17C5.liga" unicode="&#x1795;&#x17c5;" horiz-adv-x="2050" 
d="M1000 750v150q-40 0 -70 -62t-30 -108q0 -40 50 -40t50 60zM760 1200q-132 0 -269 95l-81 55l-110 -78q0 -33 100 -107l-150 -37q-100 52 -100 108v53q0 37 65 80l66 43q111 88 143 88q24 0 147 -76q130 -74 189 -74q240 0 240 186q0 154 -290 154q0 110 140 110
q300 0 300 -264q0 -336 -390 -336zM1650 1152l-240 154l-284 -310q24 -36 24 -96v-900h-150l-77 75l-223 218l-223 -218l-77 -75h-150v790q-70 0 -70 110q0 190 160 190q60 0 60 -100v-785l300 293l300 -293v349q-23 -4 -50 -4q-200 0 -200 180q0 105 79 212q66 90 140 105
l419 453l262 -169v339q0 80 -105 100t-105 130h115q245 0 245 -230v-1670h-150v1152z" />
    <glyph glyph-name="uni1796_uni17C5.liga" unicode="&#x1796;&#x17c5;" horiz-adv-x="2050" 
d="M400 300v-150q40 0 70 62t30 108q0 40 -50 40t-50 -60zM1650 1139l-269 167l-231 -223v-1083h-150v1153l-121 132l-180 -165l-180 165l-119 -132v-657q23 4 50 4q200 0 200 -180q0 -105 -79 -212q-79 -108 -171 -108h-150v1135q0 76 65 150l194 215l190 -178l190 178
l194 -215q14 -16 25 -32l257 247l285 -180v350q0 80 -105 100t-105 130h115q245 0 245 -230v-1670h-150v1139z" />
    <glyph glyph-name="uni1797_uni17C5.liga" unicode="&#x1797;&#x17c5;" horiz-adv-x="2050" 
d="M250 0q-20 0 -85 115t-65 225q0 140 100 140h50v220q0 400 450 400t450 -400v-700h-150v700q0 250 -300 250t-300 -250v-700h-150zM1650 1100q0 72 -51 96l-300 158l-323 -153l-382 151l-238 -146l39 -77l-111 -58l-137 154v35l198 120l99 60q100 60 144 60q43 0 130 -34
l85 -34l173 -68l142 68l71 34q70 34 115 34q43 0 106 -35l65 -35l175 -91v331q0 80 -105 100t-105 130h115q245 0 245 -230v-1670h-150v1100z" />
    <glyph glyph-name="uni1798_uni17C5.liga" unicode="&#x1798;&#x17c5;" horiz-adv-x="2050" 
d="M1000 620h-600v-220q0 -250 300 -250t300 250v220zM1650 1122l-354 197l-219 -182q73 -25 73 -161v-576q0 -400 -450 -400t-450 400v576q0 106 -200 126q152 204 206 398l107 -72q71 -48 130 -48q30 0 57 13q0 -133 -62 -152q-15 -5 -33 -5q-55 0 -134 48l-55 -113
q134 -59 134 -195v-206h600v206q0 106 -200 126l478 398l372 -205v375q0 80 -105 100t-105 130h115q245 0 245 -230v-1670h-150v1122z" />
    <glyph glyph-name="uni1799_uni17C5.liga" unicode="&#x1799;&#x17c5;" horiz-adv-x="2700" 
d="M2300 1122l-354 197l-219 -182q73 -25 73 -161v-576q0 -400 -425 -400q-246 0 -350 135q-104 -135 -350 -135q-425 0 -425 400v1000q0 100 100 100q200 0 200 -320q0 -160 -100 -160h-50v-620q0 -250 275 -250t275 250v576q0 106 -200 126q152 204 206 398l107 -72
q71 -48 130 -48q30 0 57 13q0 -133 -62 -152q-15 -5 -33 -5q-55 0 -134 48l-55 -113q134 -59 134 -195v-576q0 -250 275 -250t275 250v576q0 106 -200 126l478 398l372 -205v375q0 80 -105 100t-105 130h115q245 0 245 -230v-1670h-150v1122z" />
    <glyph glyph-name="uni179A_uni17C5.liga" unicode="&#x179a;&#x17c5;" horiz-adv-x="1300" 
d="M1050 0h-150v1128q0 20 -43 72l-71 85q-47 55 -82 55q-65 -96 -172 -107q-17 -2 -33 -2q-90 0 -178 53l-55 -113q134 -59 134 -195v-976h-170q-130 230 -130 340q0 140 100 140h50v496q0 106 -200 126q152 204 206 398l107 -72q69 -46 131 -46q34 0 67 14q90 40 145 104
q110 -20 173 -91l21 -26v287q0 80 -105 100t-105 130h115q245 0 245 -230v-1670z" />
    <glyph glyph-name="uni179B_uni17C5.liga" unicode="&#x179b;&#x17c5;" horiz-adv-x="2650" 
d="M400 300v-150q40 0 70 62t30 108q0 40 -50 40t-50 -60zM2250 1122l-354 197l-219 -182q73 -25 73 -161v-576q0 -400 -400 -400t-400 400v700q0 250 -275 250t-275 -250v-604q23 4 50 4q200 0 200 -180q0 -105 -79 -212q-79 -108 -171 -108h-150v1100q0 400 425 400
t425 -400v-700q0 -250 250 -250t250 250v576q0 106 -200 126l478 398l372 -205v375q0 80 -105 100t-105 130h115q245 0 245 -230v-1670h-150v1122z" />
    <glyph glyph-name="uni179C_uni17C5.liga" unicode="&#x179c;&#x17c5;" horiz-adv-x="1300" 
d="M900 1152l-336 175l-58 -35q-13 -17 -28 -26q-30 -19 -68 -19q-52 0 -119 37l-35 -113q144 -59 144 -195v-976h-170q-130 230 -130 340q0 140 100 140h50v496q0 106 -200 126q132 204 166 398l127 -72q13 -8 24 -8q33 0 33 80q0 90 -49.5 140.5t-189.5 51.5
q62 108 144 108t163.5 -65.5t81.5 -234.5v-5l8 5l342 -179v349q0 80 -105 100t-105 130h115q245 0 245 -230v-1670h-150v1152z" />
    <glyph glyph-name="uni179D_uni17C5.liga" unicode="&#x179d;&#x17c5;" horiz-adv-x="2050" 
d="M1150 499h150v-150h-150v-349h-150v349h-200v150h200v201q0 250 -300 250t-300 -250v-322q96 122 220 122q130 0 130 -125t-110 -125q0 100 -70 100q-71 0 -120 -125l-50 -125v-100h-150v700q0 400 450 400t450 -400v-201zM1650 1100q0 72 -51 96l-300 158l-323 -153
l-382 151l-238 -146l39 -77l-111 -58l-137 154v35l198 120l99 60q100 60 144 60q43 0 130 -34l85 -34l173 -68l142 68l71 34q70 34 115 34q43 0 106 -35l65 -35l175 -91v331q0 80 -105 100t-105 130h115q245 0 245 -230v-1670h-150v1100z" />
    <glyph glyph-name="uni179E_uni17C5.liga" unicode="&#x179e;&#x17c5;" horiz-adv-x="2050" 
d="M1000 599h-200v150h200v301h150v-301h150v-150h-150v-749h-150v221q-110 -71 -300 -71q-450 0 -450 400v390q-70 0 -70 110q0 190 160 190q60 0 60 -100v-590q0 -250 300 -250t300 250v199zM1650 1100q0 72 -51 96l-300 158l-323 -153l-382 151l-238 -146l39 -77
l-137 -31l-111 127v35l198 120l99 60q100 60 144 60q43 0 130 -34l85 -34l173 -68l142 68l71 34q70 34 115 34q43 0 106 -35l65 -35l175 -91v331q0 80 -105 100t-105 130h115q245 0 245 -230v-1670h-150v1100z" />
    <glyph glyph-name="uni179F_uni17C5.liga" unicode="&#x179f;&#x17c5;" horiz-adv-x="2650" 
d="M400 300v-150q40 0 70 62t30 108q0 40 -50 40t-50 -60zM2250 1122l-354 197l-219 -182q73 -25 73 -161v-576q0 -400 -400 -400t-400 400v300q0 250 -275 250t-275 -250v-204q23 4 50 4q200 0 200 -180q0 -105 -79 -212q-79 -108 -171 -108h-150v700q0 293 228 371l-6 8
q-35 50 -210 65q249 251 277 356l144 -70q95 -48 174 -48q41 0 78 13q0 -133 -83 -152q-12 -2 -26 -2q-87 0 -229 65l-84 -93q56 -24 86 -58l48 -55h28q425 0 425 -400v-300q0 -250 250 -250t250 250v576q0 106 -200 126l478 398l372 -205v375q0 80 -105 100t-105 130h115
q245 0 245 -230v-1670h-150v1122z" />
    <glyph glyph-name="uni17A0_uni17C5.liga" unicode="&#x17a0;&#x17c5;" horiz-adv-x="2700" 
d="M2300 1152l-301 178l-207 -129q8 -47 8 -101v-1100h-150v1100q0 250 -275 250t-275 -250v-700q0 -400 -425 -400t-425 400v576q0 106 -200 126q152 204 206 398l107 -72q71 -48 130 -48q30 0 57 13q0 -133 -62 -152q-15 -5 -33 -5q-55 0 -134 48l-55 -113
q134 -59 134 -195v-576q0 -250 275 -250t275 250v700q0 400 425 400q273 0 371 -165l258 165l296 -174v344q0 80 -105 100t-105 130h115q245 0 245 -230v-1670h-150v1152z" />
    <glyph glyph-name="uni17A1_uni17C5.liga" unicode="&#x17a1;&#x17c5;" horiz-adv-x="2700" 
d="M950 680q50 0 50 25t-25 25t-25 -50zM972 1228q-62 122 -272 122q-300 0 -300 -335t400 -335q0 200 175 200t175 -175t-200 -175v-230q0 -300 -275 -300t-275 300v170h150v-170q0 -150 125 -150t125 150v230q-550 0 -550 485t450 485t450 -400q0 -35 -18 -67t-50 -50
t-67 -18t-67 18t-50 50t-18 67t18 67.5t51 50.5q11 6 23 10zM2300 1122l-354 197l-219 -182q73 -25 73 -161v-1626h-150l-250 245l-250 -245h-150v350q-100 0 -100 125t135 125h115v-395l250 245l250 -245v1421q0 106 -200 126l478 398l372 -205v375q0 80 -105 100t-105 130
h115q245 0 245 -230v-1670h-150v1122z" />
    <glyph glyph-name="uni17A2_uni17C5.liga" unicode="&#x17a2;&#x17c5;" horiz-adv-x="2050" 
d="M1800 0h-150v1122l-354 197l-219 -182q73 -25 73 -161v-976h-170q-130 230 -130 340q0 140 100 140h50v190h-600v-670h-170q-130 230 -130 340q0 140 100 140h50v496q0 106 -200 126q152 204 206 398l107 -72q71 -48 130 -48q30 0 57 13q0 -133 -62 -152q-15 -5 -33 -5
q-55 0 -134 48l-55 -113q134 -59 134 -195v-156h600v156q0 106 -200 126l478 398l372 -205v375q0 80 -105 100t-105 130h115q245 0 245 -230v-1670z" />
    <glyph glyph-name=".notdef" horiz-adv-x="1536" 
d="M256 0v1280h1024v-1280h-1024zM288 32h960v1216h-960v-1216z" />
    <glyph glyph-name=".null" 
 />
    <glyph glyph-name="glyph2" horiz-adv-x="569" 
 />
    <glyph glyph-name="space" unicode=" " horiz-adv-x="569" 
 />
    <glyph glyph-name="space" unicode="&#xa0;" horiz-adv-x="569" 
 />
    <glyph glyph-name="exclam" unicode="!" horiz-adv-x="872" 
d="M612 1493v-692l-40 -457h-70l-40 457v692h150zM622 213v-213h-172v213h172z" />
    <glyph glyph-name="quotedbl" unicode="&#x22;" horiz-adv-x="727" 
d="M106 1452h190v-227l-55 -275h-80l-55 275v227zM434 1452h190v-227l-55 -275h-80l-55 275v227z" />
    <glyph glyph-name="numbersign" unicode="#" horiz-adv-x="1138" 
d="M993 1427l-74 -401h190v-139h-217l-63 -357h215v-139h-240l-80 -431h-155l77 431h-253l-80 -431h-156l78 431h-207v139h233l64 357h-221v139h248l73 401h156l-74 -401h256l72 401h158zM737 887h-254l-66 -357h256z" />
    <glyph glyph-name="dollar" unicode="$" horiz-adv-x="1138" 
d="M501 1577h121v-111q258 -18 354 -209q39 -77 43 -174v-20h-161q-2 158 -119 227q-41 23 -90 31q-13 2 -27 2v-510q205 -63 268 -98q174 -99 174 -316q0 -213 -139 -338q-22 -20 -49 -36q-100 -59 -254 -72v-211h-121v211q-315 21 -403 260q-28 80 -28 177q0 18 1 36h162
q14 -152 43 -201q4 -6 8 -14q72 -98 217 -117v557q-190 58 -258 107q-145 104 -145 299q0 299 286 385q54 16 117 24v111zM501 829v492q-196 -27 -231 -182q-6 -29 -6 -62q0 -184 237 -248zM622 633v-539q125 15 188 76q86 82 86 205q0 125 -96 186q-59 37 -178 72z" />
    <glyph glyph-name="percent" unicode="%" horiz-adv-x="1820" 
d="M407 1403q172 0 277 -135l37 -58q36 -75 36 -161q0 -162 -129 -267q-96 -80 -219 -80q-166 0 -272 129q-78 99 -78 222q0 166 129 272q96 78 219 78zM407 1260q-110 0 -172 -95l-24 -47q-11 -33 -11 -65q0 -109 92 -172q54 -35 117 -35q111 0 172 92q35 51 35 113
q0 116 -98 178q-49 31 -111 31zM1247 1452h135l-809 -1492h-135zM1409 659q174 0 278 -135q72 -94 72 -217q0 -162 -129 -266q-96 -79 -219 -79q-166 0 -273 128q-78 98 -78 221q0 166 132 271q96 77 217 77zM1409 516q-111 0 -172 -92q-35 -51 -35 -113q0 -112 96 -174
q51 -33 113 -33q110 0 172 93q35 51 35 110q0 117 -99 178l-47 21q-31 10 -63 10z" />
    <glyph glyph-name="ampersand" unicode="&#x26;" horiz-adv-x="1366" 
d="M1009 684h164q0 -192 -119 -375l250 -309h-223l-127 160q-100 -99 -158 -133q-115 -74 -270 -74q-238 0 -352 168q-68 100 -68 239q0 166 106 275q74 74 226 162q-144 180 -162 278q-4 27 -4 55q0 158 133 254q94 68 217 68q184 0 279 -135l30 -57q19 -43 23 -93
q2 -18 2 -37q0 -141 -113 -241q-59 -53 -170 -115l273 -334q63 112 63 236v8zM583 883q166 104 197 180q14 31 14 72q0 106 -92 153q-39 21 -86 21q-123 0 -164 -103q-12 -32 -12 -73q0 -68 51 -140zM856 281l-328 409q-193 -123 -234 -225q-16 -41 -16 -90q0 -133 111 -211
q71 -51 157 -51q138 0 277 133q16 16 33 35z" />
    <glyph glyph-name="quotesingle" unicode="'" horiz-adv-x="391" 
d="M98 1452h193v-227l-56 -275h-82l-55 275v227z" />
    <glyph glyph-name="parenleft" unicode="(" horiz-adv-x="1146" 
d="M584 1493h112q-253 -410 -278 -879q-2 -43 -2 -84q0 -477 250 -912q14 -27 30 -52h-112q-232 303 -307 696q-27 139 -27 268q0 367 190 734q64 125 144 229z" />
    <glyph glyph-name="parenright" unicode=")" horiz-adv-x="1146" 
d="M563 -434h-113q254 410 279 878q2 43 2 84q0 478 -250 914q-15 26 -31 51h113q231 -303 307 -696q26 -140 26 -269q0 -366 -190 -732q-63 -125 -143 -230z" />
    <glyph glyph-name="asterisk" unicode="*" horiz-adv-x="1321" 
d="M696 1493h129l-10 -229l217 77l39 -120l-222 -62l144 -182l-105 -74l-127 191l-129 -191l-102 74l141 182l-221 62l39 120l217 -77z" />
    <glyph glyph-name="plus" unicode="+" horiz-adv-x="1196" 
d="M1093 547v-144h-424v-423h-143v423h-424v144h424v424h143v-424h424z" />
    <glyph glyph-name="comma" unicode="," horiz-adv-x="569" 
d="M178 213h215v-245q0 -269 -215 -269v78q88 4 109 68q14 39 14 119v36h-123v213z" />
    <glyph glyph-name="hyphen" unicode="-" horiz-adv-x="681" 
d="M581 639v-147h-487v147h487z" />
    <glyph glyph-name="hyphen" unicode="&#xad;" horiz-adv-x="681" 
d="M581 639v-147h-487v147h487z" />
    <glyph glyph-name="period" unicode="." horiz-adv-x="569" 
d="M391 213v-213h-213v213h213z" />
    <glyph glyph-name="slash" unicode="/" horiz-adv-x="569" 
d="M469 1493h113l-485 -1533h-113z" />
    <glyph glyph-name="zero" unicode="0" horiz-adv-x="1166" 
d="M583 1500q495 0 495 -750t-495 -750t-495 750t495 750zM583 1350q-345 0 -345 -600t345 -600t345 600t-345 600z" />
    <glyph glyph-name="one" unicode="1" horiz-adv-x="952" 
d="M431 1172h-205v95q212 0 242 233h113v-1350h205v-150h-560v150h205v1022z" />
    <glyph glyph-name="two" unicode="2" horiz-adv-x="1129" 
d="M889 1053q0 297 -315 297t-315 -297h-150q0 447 465 447t465 -447q0 -312 -382 -476l-191 -83q-207 -85 -207 -344h780v-150h-930v150q0 358 307 489l191 82q282 122 282 332z" />
    <glyph glyph-name="three" unicode="3" horiz-adv-x="1143" 
d="M562 861q285 0 285 245q0 244 -285 244t-285 -244h-150q0 394 435 394t435 -392q0 -220 -136 -317q166 -103 166 -360q0 -431 -465 -431t-465 433h150q0 -283 315 -283t315 283q0 282 -315 282h-78v146h78z" />
    <glyph glyph-name="four" unicode="4" horiz-adv-x="1091" 
d="M698 1231l-477 -712h477v712zM698 1500h150v-981h192v-150h-192v-369h-150v369h-658v150z" />
    <glyph glyph-name="five" unicode="5" horiz-adv-x="1146" 
d="M1039 500q0 -500 -437 -500q-428 0 -478 397h150q50 -247 328 -247q287 0 287 350t-277 350q-202 0 -288 -128h-145l70 778h720v-150h-585l-37 -401q107 51 265 51q427 0 427 -500z" />
    <glyph glyph-name="six" unicode="6" horiz-adv-x="1082" 
d="M243 573q43 -423 307 -423q315 0 315 325t-315 325q-263 0 -307 -227zM550 0q-465 0 -465 750t515 750q415 0 415 -352h-150q0 202 -265 202q-328 0 -361 -486q113 86 311 86q465 0 465 -475t-465 -475z" />
    <glyph glyph-name="seven" unicode="7" horiz-adv-x="1103" 
d="M1029 1350l-533 -1350h-161l534 1350h-770v150h930v-150z" />
    <glyph glyph-name="eight" unicode="8" horiz-adv-x="1078" 
d="M539 1350q-285 0 -285 -250t285 -250t285 250t-285 250zM539 700q-315 0 -315 -275t315 -275t315 275t-315 275zM237 780q-133 98 -133 320q0 400 435 400t435 -400q0 -222 -133 -320q163 -103 163 -355q0 -425 -465 -425t-465 425q0 252 163 355z" />
    <glyph glyph-name="nine" unicode="9" horiz-adv-x="1082" 
d="M839 927q-43 423 -307 423q-315 0 -315 -325t315 -325q263 0 307 227zM532 1500q465 0 465 -750t-515 -750q-415 0 -415 352h150q0 -202 265 -202q328 0 361 486q-113 -86 -311 -86q-465 0 -465 475t465 475z" />
    <glyph glyph-name="colon" unicode=":" horiz-adv-x="569" 
d="M438 213v-213h-213v213h213zM438 1073v-213h-213v213h213z" />
    <glyph glyph-name="semicolon" unicode=";" horiz-adv-x="569" 
d="M440 1073v-213h-213v213h213zM225 213h215v-245q0 -269 -215 -269v78q88 4 109 68q14 39 14 119v36h-123v213z" />
    <glyph glyph-name="semicolon" unicode="&#x37e;" horiz-adv-x="569" 
d="M440 1073v-213h-213v213h213zM225 213h215v-245q0 -269 -215 -269v78q88 4 109 68q14 39 14 119v36h-123v213z" />
    <glyph glyph-name="less" unicode="&#x3c;" horiz-adv-x="1196" 
d="M92 406v141l1001 424v-162l-806 -330l806 -336v-161z" />
    <glyph glyph-name="equal" unicode="=" horiz-adv-x="1196" 
d="M1093 723v-143h-991v143h991zM1093 371v-144h-991v144h991z" />
    <glyph glyph-name="greater" unicode="&#x3e;" horiz-adv-x="1196" 
d="M1103 547v-141l-1001 -424v161l807 330l-807 336v162z" />
    <glyph glyph-name="question" unicode="?" horiz-adv-x="1585" 
d="M968 408h-184v112q0 103 57 178q35 45 107 113q14 12 49 43q151 135 153 270q0 144 -125 205l-63 21q-35 8 -74 8q-168 0 -229 -119q-35 -70 -35 -201h-174q0 216 92 335q93 119 277 140q39 5 80 5q258 0 372 -170l33 -62q31 -74 31 -162q0 -143 -105 -264
q-39 -47 -100 -102q-129 -119 -150 -174q-12 -31 -12 -80v-96zM968 213v-213h-184v213h184z" />
    <glyph glyph-name="at" unicode="@" horiz-adv-x="2078" 
d="M1361 1026h170l-184 -573q-25 -72 -25 -103q0 -55 60 -82q20 -8 43 -8q131 0 239 148q105 145 105 323q0 246 -199 428q-203 189 -491 201h-31q-301 0 -533 -209l-69 -70q-203 -231 -203 -522q0 -289 215 -487q221 -205 553 -205q162 0 395 66l58 -137q-230 -86 -463 -86
q-369 0 -637 219q-250 204 -289 505q-6 47 -6 94q0 316 195 582q57 80 129 143q221 201 530 252q76 13 152 13q340 0 591 -207q238 -193 275 -469q6 -43 6 -86q0 -248 -176 -457q-156 -182 -381 -182q-197 0 -225 157q-135 -147 -291 -147q-168 0 -264 141q-70 101 -70 234
q0 223 162 395q158 170 364 172q172 0 250 -178zM1054 938q-135 0 -237 -145q-93 -129 -93 -293q0 -138 97 -207q49 -35 106 -35q119 0 209 133q68 98 100 271q9 45 11 79v14q0 101 -84 154q-50 29 -109 29z" />
    <glyph glyph-name="uni1780" unicode="&#x1780;" horiz-adv-x="1400" 
d="M147 1280q132 100 198 160q67 60 96 60t87 -34l57 -34l115 -68l95 68l47 34q47 34 77 34q29 0 71 -35l43 -35q85 -71 225 -130q-69 -97 -128 -97q-15 0 -29 6q-72 30 -190 128l-211 -146l-244 149l-121 -91l40 -80l-91 -58l-137 114v55zM1150 0h-150v700q0 250 -300 250
t-300 -250v-700h-150v700q0 400 450 400t450 -400v-700z" />
    <glyph glyph-name="uni1781" unicode="&#x1781;" horiz-adv-x="1400" 
d="M250 555l375 188q375 187 375 357q0 250 -300 250q-256 0 -293 -182q22 -4 44 -15q32 -18 50.5 -50.5t18.5 -67.5t-18 -67t-50 -50t-67 -18t-67 18t-50 50t-18 67v65q0 400 450 400t450 -400q0 -262 -453 -489l-297 -148v-63q0 -250 300 -250t300 250v200h150v-200
q0 -400 -450 -400t-450 400v155z" />
    <glyph glyph-name="uni1782" unicode="&#x1782;" horiz-adv-x="1400" 
d="M147 1280q132 100 198 160q67 60 96 60t87 -34l57 -34l115 -68l95 68l47 34q47 34 77 34q29 0 71 -35l43 -35q85 -71 225 -130q-69 -97 -128 -97q-15 0 -29 6q-72 30 -190 128l-211 -146l-244 149l-121 -91l40 -80l-91 -58l-137 114v55zM400 378q96 122 220 122
q130 0 130 -125t-110 -125q0 100 -70 100q-71 0 -120 -125l-50 -125v-100h-150v700q0 400 450 400t450 -400v-700h-150v700q0 250 -300 250t-300 -250v-322z" />
    <glyph glyph-name="uni1783" unicode="&#x1783;" horiz-adv-x="2050" 
d="M250 1020h-50q-100 0 -100 160q0 320 200 320q100 0 100 -100v-1000q0 -250 275 -250t275 250v576q0 106 -200 126q152 204 206 398l107 -72q71 -48 130 -48q30 0 57 13q0 -133 -62 -152q-15 -5 -33 -5q-55 0 -134 48l-55 -113q134 -59 134 -195v-576q0 -250 275 -250
t275 250v576q0 106 -200 126q152 204 206 398l107 -72q71 -48 130 -48q30 0 57 13q0 -133 -62 -152q-15 -5 -33 -5q-55 0 -134 48l-55 -113q134 -59 134 -195v-576q0 -400 -425 -400q-246 0 -350 135q-104 -135 -350 -135q-425 0 -425 400v620z" />
    <glyph glyph-name="uni1784" unicode="&#x1784;" horiz-adv-x="1400" 
d="M920 1320q0 60 -50 60q-70 0 -70 -60q0 -34 60 -78q60 31 60 78zM1000 900q0 108 -42 141q-44 24 -80 48q-142 -89 -278 -89q-178 0 -261 69q-89 75 -89 211q0 85 50 172.5t50 147.5q0 100 -150 100q0 100 100 100q200 0 200 -200q0 -65 -50 -157.5t-50 -162.5
q0 -59 55 -94.5t145 -35.5q104 0 160 33q-80 61 -80 137q0 180 190 180q180 0 180 -180q0 -77 -68 -148q21 -11 43 -22q125 -67 125 -250v-900h-150l-300 293l-300 -293h-150v600q-100 0 -100 140q0 160 150 160h100v-695l300 293l300 -293v695z" />
    <glyph glyph-name="uni1785" unicode="&#x1785;" horiz-adv-x="1400" 
d="M147 1280q132 100 198 160q67 60 96 60t87 -34l57 -34l115 -68l95 68l47 34q47 34 77 34q29 0 71 -35l43 -35q85 -71 225 -130q-69 -97 -128 -97q-15 0 -29 6q-72 30 -190 128l-211 -146l-244 149l-121 -91l40 -80l-91 -58l-137 114v55zM1150 400q0 -400 -450 -400
t-450 400v390q-70 0 -70 110q0 190 160 190q60 0 60 -100v-590q0 -250 300 -250t300 250v350q-100 0 -100 140q0 160 150 160q100 0 100 -100v-550z" />
    <glyph glyph-name="uni1786" unicode="&#x1786;" horiz-adv-x="1400" 
d="M1000 750v150q-40 0 -70 -62t-30 -108q0 -40 50 -40t50 60zM147 1280q132 100 198 160q67 60 96 60t87 -34l57 -34l115 -68l95 68l47 34q47 34 77 34q29 0 71 -35l43 -35q85 -71 225 -130q-69 -97 -128 -97q-15 0 -29 6q-72 30 -190 128l-211 -146l-244 149l-121 -91
l40 -80l-91 -58l-137 114v55zM1000 554q-23 -4 -50 -4q-200 0 -200 180q0 105 79 212q79 108 171 108q150 0 150 -150v-650q0 -250 -300 -250t-300 250q0 100 -75 100t-75 -250v-100h-150v790q-70 0 -70 110q0 190 160 190q60 0 60 -100v-503q34 13 75 13q225 0 225 -250
q0 -100 150 -100t150 100v304z" />
    <glyph glyph-name="uni1787" unicode="&#x1787;" horiz-adv-x="1400" 
d="M760 1200q-132 0 -269 95l-81 55l-110 -78q0 -33 100 -107l-150 -37q-100 52 -100 108v53q0 37 65 80l66 43q111 88 143 88q24 0 147 -76q130 -74 189 -74q240 0 240 186q0 154 -290 154q0 110 140 110q300 0 300 -264q0 -336 -390 -336zM1000 1050h150v-1050h-150
l-300 293l-300 -293h-150v790q-70 0 -70 110q0 190 160 190q60 0 60 -100v-785l300 293l300 -293v845z" />
    <glyph glyph-name="uni1788" unicode="&#x1788;" horiz-adv-x="2650" 
d="M400 300v-150q40 0 70 62t30 108q0 40 -50 40t-50 -60zM400 496q23 4 50 4q200 0 200 -180q0 -105 -79 -212q-79 -108 -171 -108h-150v1100q0 400 425 400t425 -400v-700q0 -250 250 -250t250 250v576q0 106 -200 126q152 204 206 398l107 -72q71 -48 130 -48q30 0 57 13
q0 -133 -62 -152q-15 -5 -33 -5q-55 0 -134 48l-55 -113q134 -59 134 -195v-576q0 -250 250 -250t250 250v576q0 106 -200 126q152 204 206 398l107 -72q71 -48 130 -48q30 0 57 13q0 -133 -62 -152q-15 -5 -33 -5q-55 0 -134 48l-55 -113q134 -59 134 -195v-576
q0 -400 -400 -400q-227 0 -325 129q-98 -129 -325 -129q-400 0 -400 400v700q0 250 -275 250t-275 -250v-604z" />
    <glyph glyph-name="uni1789" unicode="&#x1789;" horiz-adv-x="2050" 
d="M400 300v-150q40 0 70 62t30 108q0 40 -50 40t-50 -60zM1150 0h-150v1153l-121 132l-180 -165l-180 165l-119 -132v-657q23 4 50 4q200 0 200 -180q0 -105 -79 -212q-79 -108 -171 -108h-150v1135q0 76 65 150l194 215l190 -178l190 178l194 -215q14 -16 25 -32l257 247
l354 -223q81 -51 81 -142v-1135h-150v1139l-269 167l-231 -223v-1083zM1575 -379q75 43 75 113q0 53 -65 53q-62 0 -62 57q0 56 62 56q215 0 215 -166q0 -139 -115 -220q-161 -114 -546 -114q-280 0 -494 98q-207 94 -354 277q-41 42 -41 84q0 41 52 41q51 0 82 -41
q144 -153 332 -231q189 -78 423 -78q316 0 436 71z" />
    <glyph glyph-name="uni178A" unicode="&#x178a;" horiz-adv-x="1400" 
d="M180 1420q0 120 130 120q129 0 129 -120q0 -88 -79 -98q60 -72 228 -72q407 0 407 240q0 180 -354 210q0 100 132 100q377 0 377 -310q0 -390 -562 -390q-199 0 -303.5 80t-104.5 240zM1000 1050h150v-1050h-150l-300 293l-300 -293h-150v790q-70 0 -70 110
q0 190 160 190q60 0 60 -100v-785l300 293l300 -293v845z" />
    <glyph glyph-name="uni178B" unicode="&#x178b;" horiz-adv-x="1400" 
d="M1000 976q0 106 -200 126q132 204 166 398l127 -72q13 -8 24 -8q33 0 33 80q0 90 -49.5 140.5t-189.5 51.5q62 108 144 108t163.5 -65.5t81.5 -234.5q0 -190 -72 -234q-31 -19 -68 -19q-52 0 -119 37l-35 -113q144 -59 144 -195v-576q0 -400 -450 -400t-450 400v620h-50
q-100 0 -100 160q0 320 200 320q100 0 100 -100v-1000q0 -250 300 -250t300 250v576z" />
    <glyph glyph-name="uni178C" unicode="&#x178c;" horiz-adv-x="1400" 
d="M1000 349l-413 -349l-239 152q-67 44 -67 92q0 45 59 93l530 443q130 120 130 320q0 100 -131 200l-167 -130l-166 130q-136 -100 -136 -200q0 -150 134 -150q96 0 96 50q0 80 75 80t75 -80q0 -200 -248 -200q-282 0 -282 300q0 110 68 196l193 204l189 -160l192 160
l192 -204q66 -86 66 -196q0 -273 -170 -418l-511 -429l105 -64l320 263q106 92 106 148h150v-600h-150v349z" />
    <glyph glyph-name="uni178D" unicode="&#x178d;" horiz-adv-x="2100" 
d="M400 300v-150q40 0 70 62t30 108q0 40 -50 40t-50 -60zM1850 250q0 -250 -275 -250t-275 250q0 100 -75 100t-75 -250v-100h-150v1153l-121 132l-180 -165l-180 165l-119 -132v-657q23 4 50 4q200 0 200 -180q0 -105 -79 -212q-79 -108 -171 -108h-150v1135q0 76 65 150
l194 215l190 -178l190 178l194 -215q67 -74 67 -150v-648q34 13 75 13q225 0 225 -250q0 -100 125 -100t125 100v726q0 106 -200 126q152 204 206 398l107 -72q71 -48 130 -48q30 0 57 13q0 -133 -62 -152q-15 -5 -33 -5q-55 0 -134 48l-55 -113q134 -59 134 -195v-726z" />
    <glyph glyph-name="uni178E" unicode="&#x178e;" horiz-adv-x="2750" 
d="M400 300v-150q40 0 70 62t30 108q0 40 -50 40t-50 -60zM400 496q23 4 50 4q200 0 200 -180q0 -105 -79 -212q-79 -108 -171 -108h-150v1100q0 400 425 400t425 -400v-895l275 269l275 -269v895q0 400 425 400t425 -400v-1100h-150v1100q0 250 -275 250t-275 -250v-1100
h-150l-275 269l-275 -269h-150v1100q0 250 -275 250t-275 -250v-604z" />
    <glyph glyph-name="uni178F" unicode="&#x178f;" horiz-adv-x="1400" 
d="M147 1280q132 100 198 160q67 60 96 60t87 -34l57 -34l115 -68l95 68l47 34q47 34 77 34q29 0 71 -35l43 -35q85 -71 225 -130q-69 -97 -128 -97q-15 0 -29 6q-72 30 -190 128l-211 -146l-244 149l-121 -91l40 -80l-91 -58l-137 114v55zM400 496q23 4 50 4
q200 0 200 -180q0 -105 -79 -212q-79 -108 -171 -108h-150v700q0 400 450 400t450 -400v-700h-150v700q0 250 -300 250t-300 -250v-204zM400 150q40 0 70 62t30 108q0 40 -50 40t-50 -60v-150z" />
    <glyph glyph-name="uni1790" unicode="&#x1790;" horiz-adv-x="1400" 
d="M760 1200q-132 0 -269 95l-81 55l-110 -78q0 -33 100 -107l-150 -37q-100 52 -100 108v53q0 37 65 80l66 43q111 88 143 88q24 0 147 -76q130 -74 189 -74q240 0 240 186q0 154 -290 154q0 110 140 110q300 0 300 -264q0 -336 -390 -336zM1150 400q0 -400 -450 -400
t-450 400v390q-70 0 -70 110q0 190 160 190q60 0 60 -100v-590q0 -250 300 -250t300 250v350q-100 0 -100 140q0 160 150 160q100 0 100 -100v-550z" />
    <glyph glyph-name="uni1791" unicode="&#x1791;" horiz-adv-x="1400" 
d="M950 680q50 0 50 25t-25 25t-25 -50zM972 1228q-62 122 -272 122q-300 0 -300 -335t400 -335q0 200 175 200t175 -175t-200 -175v-230q0 -300 -275 -300t-275 300v170h150v-170q0 -150 125 -150t125 150v230q-550 0 -550 485t450 485t450 -400q0 -35 -18 -67t-50 -50
t-67 -18t-67 18t-50 50t-18 67t18 67.5t51 50.5q11 6 23 10z" />
    <glyph glyph-name="uni1792" unicode="&#x1792;" horiz-adv-x="1400" 
d="M147 1280q132 100 198 160q67 60 96 60t87 -34l57 -34l115 -68l95 68l47 34q47 34 77 34q29 0 71 -35l43 -35q85 -71 225 -130q-69 -97 -128 -97q-15 0 -29 6q-72 30 -190 128l-211 -146l-244 149l-121 -91l40 -80l-91 -58l-137 114v55zM1150 0h-150l-300 293l-300 -293
h-150v790q-70 0 -70 110q0 190 160 190q60 0 60 -100v-785l300 293l300 -293v545q-100 0 -100 140q0 160 150 160q100 0 100 -100v-950z" />
    <glyph glyph-name="uni1793" unicode="&#x1793;" horiz-adv-x="1400" 
d="M250 1100q0 400 450 400t450 -400v-65q0 -35 -18 -67t-50 -50t-67 -18t-67 18t-50 50t-18 67t18.5 67.5t50.5 50.5q22 11 44 15q-37 182 -293 182q-300 0 -300 -250q0 -186 379 -353l371 -164v-283q0 -300 -255 -300q-131 0 -240 125t-255 125v-250h-150v600h150v-200
q175 0 294.5 -125t200.5 -125q105 0 105 150v185l-287 127q-463 205 -463 488z" />
    <glyph glyph-name="uni1794" unicode="&#x1794;" horiz-adv-x="1400" 
d="M1000 976q0 106 -200 126q152 204 206 398l107 -72q71 -48 130 -48q30 0 57 13q0 -133 -62 -152q-15 -5 -33 -5q-55 0 -134 48l-55 -113q134 -59 134 -195v-576q0 -400 -450 -400t-450 400v576q0 106 -200 126q152 204 206 398l107 -72q71 -48 130 -48q30 0 57 13
q0 -133 -62 -152q-15 -5 -33 -5q-55 0 -134 48l-55 -113q134 -59 134 -195v-576q0 -250 300 -250t300 250v576z" />
    <glyph glyph-name="uni1795" unicode="&#x1795;" horiz-adv-x="1400" 
d="M760 1200q-132 0 -269 95l-81 55l-110 -78q0 -33 100 -107l-150 -37q-100 52 -100 108v53q0 37 65 80l66 43q111 88 143 88q24 0 147 -76q130 -74 189 -74q240 0 240 186q0 154 -290 154q0 110 140 110q300 0 300 -264q0 -336 -390 -336zM1000 750v150q-40 0 -70 -62
t-30 -108q0 -40 50 -40t50 60zM1000 554q-23 -4 -50 -4q-200 0 -200 180q0 105 79 212q79 108 171 108q150 0 150 -150v-900h-150l-77 75l-223 218l-223 -218l-77 -75h-150v790q-70 0 -70 110q0 190 160 190q60 0 60 -100v-785l300 293l300 -293v349z" />
    <glyph glyph-name="uni1796" unicode="&#x1796;" horiz-adv-x="1400" 
d="M400 300v-150q40 0 70 62t30 108q0 40 -50 40t-50 -60zM1150 0h-150v1153l-121 132l-180 -165l-180 165l-119 -132v-657q23 4 50 4q200 0 200 -180q0 -105 -79 -212q-79 -108 -171 -108h-150v1135q0 76 65 150l194 215l190 -178l190 178l194 -215q67 -74 67 -150v-1135z
" />
    <glyph glyph-name="uni1797" unicode="&#x1797;" horiz-adv-x="1400" 
d="M147 1280q132 100 198 160q67 60 96 60t87 -34l57 -34l115 -68l95 68l47 34q47 34 77 34q29 0 71 -35l43 -35q85 -71 225 -130q-69 -97 -128 -97q-15 0 -29 6q-72 30 -190 128l-211 -146l-244 149l-121 -91l40 -80l-91 -58l-137 114v55zM250 0q-20 0 -85 115t-65 225
q0 140 100 140h50v220q0 400 450 400t450 -400v-700h-150v700q0 250 -300 250t-300 -250v-700h-150z" />
    <glyph glyph-name="uni1798" unicode="&#x1798;" horiz-adv-x="1400" 
d="M1150 400q0 -400 -450 -400t-450 400v576q0 106 -200 126q152 204 206 398l107 -72q71 -48 130 -48q30 0 57 13q0 -133 -62 -152q-15 -5 -33 -5q-55 0 -134 48l-55 -113q134 -59 134 -195v-206h600v206q0 106 -200 126q152 204 206 398l107 -72q71 -48 130 -48
q30 0 57 13q0 -133 -62 -152q-15 -5 -33 -5q-55 0 -134 48l-55 -113q134 -59 134 -195v-576zM1000 620h-600v-220q0 -250 300 -250t300 250v220z" />
    <glyph glyph-name="uni1799" unicode="&#x1799;" horiz-adv-x="2050" 
d="M950 976q0 106 -200 126q152 204 206 398l107 -72q71 -48 130 -48q30 0 57 13q0 -133 -62 -152q-15 -5 -33 -5q-55 0 -134 48l-55 -113q134 -59 134 -195v-576q0 -250 275 -250t275 250v576q0 106 -200 126q152 204 206 398l107 -72q71 -48 130 -48q30 0 57 13
q0 -133 -62 -152q-15 -5 -33 -5q-55 0 -134 48l-55 -113q134 -59 134 -195v-576q0 -400 -425 -400q-246 0 -350 135q-104 -135 -350 -135q-425 0 -425 400v1000q0 100 100 100q200 0 200 -320q0 -160 -100 -160h-50v-620q0 -250 275 -250t275 250v576z" />
    <glyph glyph-name="uni179A" unicode="&#x179a;" horiz-adv-x="650" 
d="M400 0h-170q-130 230 -130 340q0 140 100 140h50v496q0 106 -200 126q152 204 206 398l107 -72q71 -48 130 -48q30 0 57 13q0 -133 -62 -152q-15 -5 -33 -5q-55 0 -134 48l-55 -113q134 -59 134 -195v-976z" />
    <glyph glyph-name="uni179B" unicode="&#x179b;" horiz-adv-x="2000" 
d="M400 300v-150q40 0 70 62t30 108q0 40 -50 40t-50 -60zM400 496q23 4 50 4q200 0 200 -180q0 -105 -79 -212q-79 -108 -171 -108h-150v1100q0 400 425 400t425 -400v-700q0 -250 250 -250t250 250v576q0 106 -200 126q152 204 206 398l107 -72q71 -48 130 -48q30 0 57 13
q0 -133 -62 -152q-15 -5 -33 -5q-55 0 -134 48l-55 -113q134 -59 134 -195v-576q0 -400 -400 -400t-400 400v700q0 250 -275 250t-275 -250v-604z" />
    <glyph glyph-name="uni179C" unicode="&#x179c;" horiz-adv-x="650" 
d="M550 1500q0 -190 -72 -234q-31 -19 -68 -19q-52 0 -119 37l-35 -113q144 -59 144 -195v-976h-170q-130 230 -130 340q0 140 100 140h50v496q0 106 -200 126q132 204 166 398l127 -72q13 -8 24 -8q33 0 33 80q0 90 -49.5 140.5t-189.5 51.5q62 108 144 108t163.5 -65.5
t81.5 -234.5z" />
    <glyph glyph-name="uni179D" unicode="&#x179d;" horiz-adv-x="1400" 
d="M147 1280q132 100 198 160q67 60 96 60t87 -34l57 -34l115 -68l95 68l47 34q47 34 77 34q29 0 71 -35l43 -35q85 -71 225 -130q-69 -97 -128 -97q-15 0 -29 6q-72 30 -190 128l-211 -146l-244 149l-121 -91l40 -80l-91 -58l-137 114v55zM1150 499h150v-150h-150v-349
h-150v349h-200v150h200v201q0 250 -300 250t-300 -250v-322q96 122 220 122q130 0 130 -125t-110 -125q0 100 -70 100q-71 0 -120 -125l-50 -125v-100h-150v700q0 400 450 400t450 -400v-201z" />
    <glyph glyph-name="uni179E" unicode="&#x179e;" horiz-adv-x="1400" 
d="M250 976q0 106 -200 126q152 204 206 398l107 -72q71 -48 130 -48q30 0 57 13q0 -133 -62 -152q-15 -5 -33 -5q-55 0 -134 48l-55 -113q134 -59 134 -195v-576q0 -250 300 -250t300 250v175h-200v150h200v251q0 106 -200 126q152 204 206 398l107 -72q71 -48 130 -48
q30 0 57 13q0 -133 -62 -152q-15 -5 -33 -5q-55 0 -134 48l-55 -113q134 -59 134 -195v-251h150v-150h-150v-175q0 -400 -450 -400t-450 400v576z" />
    <glyph glyph-name="uni179F" unicode="&#x179f;" horiz-adv-x="2000" 
d="M400 300v-150q40 0 70 62t30 108q0 40 -50 40t-50 -60zM1600 976q0 106 -200 126q152 204 206 398l107 -72q71 -48 130 -48q30 0 57 13q0 -133 -62 -152q-15 -5 -33 -5q-55 0 -134 48l-55 -113q134 -59 134 -195v-576q0 -400 -400 -400t-400 400v300q0 250 -275 250
t-275 -250v-204q23 4 50 4q200 0 200 -180q0 -105 -79 -212q-79 -108 -171 -108h-150v700q0 293 228 371l-6 8q-35 50 -210 65q249 251 277 356l144 -70q95 -48 174 -48q41 0 78 13q0 -133 -83 -152q-12 -2 -26 -2q-87 0 -229 65l-84 -93q56 -24 86 -58l48 -55h28
q425 0 425 -400v-300q0 -250 250 -250t250 250v576z" />
    <glyph glyph-name="uni17A0" unicode="&#x17a0;" horiz-adv-x="2050" 
d="M250 976q0 106 -200 126q152 204 206 398l107 -72q71 -48 130 -48q30 0 57 13q0 -133 -62 -152q-15 -5 -33 -5q-55 0 -134 48l-55 -113q134 -59 134 -195v-576q0 -250 275 -250t275 250v700q0 400 425 400t425 -400v-1100h-150v1100q0 250 -275 250t-275 -250v-700
q0 -400 -425 -400t-425 400v576z" />
    <glyph glyph-name="uni17A1" unicode="&#x17a1;" horiz-adv-x="2050" 
d="M1650 -445v1421q0 106 -200 126q152 204 206 398l107 -72q71 -48 130 -48q30 0 57 13q0 -133 -62 -152q-15 -5 -33 -5q-55 0 -134 48l-55 -113q134 -59 134 -195v-1626h-150l-250 245l-250 -245h-150v350q-100 0 -100 125t135 125h115v-395l250 245zM950 680q50 0 50 25
t-25 25t-25 -50zM972 1228q-62 122 -272 122q-300 0 -300 -335t400 -335q0 200 175 200t175 -175t-200 -175v-230q0 -300 -275 -300t-275 300v170h150v-170q0 -150 125 -150t125 150v230q-550 0 -550 485t450 485t450 -400q0 -35 -18 -67t-50 -50t-67 -18t-67 18t-50 50
t-18 67t18 67.5t51 50.5q11 6 23 10z" />
    <glyph glyph-name="uni17A2" unicode="&#x17a2;" horiz-adv-x="1400" 
d="M1000 820v156q0 106 -200 126q152 204 206 398l107 -72q71 -48 130 -48q30 0 57 13q0 -133 -62 -152q-15 -5 -33 -5q-55 0 -134 48l-55 -113q134 -59 134 -195v-976h-170q-130 230 -130 340q0 140 100 140h50v190h-600v-670h-170q-130 230 -130 340q0 140 100 140h50v496
q0 106 -200 126q152 204 206 398l107 -72q71 -48 130 -48q30 0 57 13q0 -133 -62 -152q-15 -5 -33 -5q-55 0 -134 48l-55 -113q134 -59 134 -195v-156h600z" />
    <glyph glyph-name="uni17A3" unicode="&#x17a3;" horiz-adv-x="1400" 
d="M1000 820v156q0 106 -200 126q152 204 206 398l107 -72q71 -48 130 -48q30 0 57 13q0 -133 -62 -152q-15 -5 -33 -5q-55 0 -134 48l-55 -113q134 -59 134 -195v-976h-170q-130 230 -130 340q0 140 100 140h50v190h-600v-670h-170q-130 230 -130 340q0 140 100 140h50v496
q0 106 -200 126q152 204 206 398l107 -72q71 -48 130 -48q30 0 57 13q0 -133 -62 -152q-15 -5 -33 -5q-55 0 -134 48l-55 -113q134 -59 134 -195v-156h600z" />
    <glyph glyph-name="uni17A4" unicode="&#x17a4;" horiz-adv-x="2050" 
d="M1800 0h-150v1122l-354 197l-219 -182q73 -25 73 -161v-976h-170q-130 230 -130 340q0 140 100 140h50v190h-600v-670h-170q-130 230 -130 340q0 140 100 140h50v496q0 106 -200 126q152 204 206 398l107 -72q71 -48 130 -48q30 0 57 13q0 -133 -62 -152q-15 -5 -33 -5
q-55 0 -134 48l-55 -113q134 -59 134 -195v-156h600v156q0 106 -200 126l478 398l454 -250q68 -38 68 -128v-1122z" />
    <glyph glyph-name="uni17A5" unicode="&#x17a5;" horiz-adv-x="1400" 
d="M760 1200q-132 0 -269 95l-81 55l-110 -78q0 -33 100 -107l-150 -37q-100 52 -100 108v53q0 37 65 80l66 43q111 88 143 88q24 0 147 -76q130 -74 189 -74q240 0 240 186q0 154 -290 154q0 110 140 110q300 0 300 -264q0 -336 -390 -336zM400 496q23 4 50 4
q200 0 200 -180q0 -105 -79 -212q-79 -108 -171 -108h-150v700q0 400 450 400t450 -400v-700h-150v700q0 250 -300 250t-300 -250v-204zM400 150q40 0 70 62t30 108q0 40 -50 40t-50 -60v-150z" />
    <glyph glyph-name="uni17A6" unicode="&#x17a6;" horiz-adv-x="2050" 
d="M400 300v-150q40 0 70 62t30 108q0 40 -50 40t-50 -60zM450 -470v-80q70 0 70 49q0 31 -40 31h-30zM1800 -370q0 -280 -250 -280h-350q-250 0 -250 280q0 120 -250 120t-250 -120h30q140 0 140 -130q0 -150 -170 -150h-150v280q0 270 400 270t400 -270q0 -130 100 -130
h350q100 0 100 130v2010q0 210 -234 210h-216q-250 0 -250 191q0 45 20 112.5t20 137.5t-124 70q0 100 100 100q174 0 174 -170q0 -85 -20 -142.5t-20 -107.5q0 -41 100 -41h216q384 0 384 -360v-2010zM1150 0h-150v1100q0 250 -300 250t-300 -250v-604q23 4 50 4
q200 0 200 -180q0 -105 -79 -212q-79 -108 -171 -108h-150v1100q0 400 450 400t450 -400v-1100z" />
    <glyph glyph-name="uni17A7" unicode="&#x17a7;" horiz-adv-x="1400" 
d="M1150 1100q0 -267 -220 -459l-73 -64l-293 -256l165 -149l290 328h131v-600h-150v359q-17 -22 -35 -43l-93 -108l-47 -54q-46 -54 -88 -54t-131 81l-89 81l-89 81q-46 42 -46 81q0 37 40 72l413 362q165 145 165 342q0 250 -300 250q-256 0 -293 -182q22 -4 44 -15
q32 -18 50.5 -50.5t18.5 -67.5t-18 -67t-50 -50t-67 -18t-67 18t-50 50t-18 67v65q0 400 450 400t450 -400z" />
    <glyph glyph-name="uni17A8" unicode="&#x17a8;" horiz-adv-x="1399" 
d="M145 1683l132 120l66 60q67 60 96 60t87 -34l57 -34l115 -68l95 68l47 34q47 34 77 34q29 0 71 -35l43 -35q85 -71 225 -130q-69 -97 -128 -97q-15 0 -29 6q-72 30 -190 128l-211 -146l-244 149l-161 -148q-16 -15 -36 -15q-46 0 -112 83zM1151 1100q0 -267 -220 -459
l-73 -64l-293 -256l165 -149l290 328h131v-600h-150v359q-17 -22 -35 -43l-93 -108l-47 -54q-46 -54 -88 -54t-131 81l-89 81l-89 81q-46 42 -46 81q0 37 40 72l413 362q165 145 165 342q0 250 -300 250q-256 0 -293 -182q22 -4 44 -15q32 -18 50.5 -50.5t18.5 -67.5
t-18 -67t-50 -50t-67 -18t-67 18t-50 50t-18 67v65q0 400 450 400t450 -400z" />
    <glyph glyph-name="uni17A9" unicode="&#x17a9;" horiz-adv-x="1400" 
d="M1400 500v-600h-150v600h150zM1150 1100q0 -267 -220 -459l-73 -64l-293 -256l165 -149l290 328h131v-600h-150v359q-17 -22 -35 -43l-93 -108l-47 -54q-46 -54 -88 -54t-131 81l-89 81l-89 81q-46 42 -46 81q0 37 40 72l413 362q165 145 165 342q0 250 -300 250
q-256 0 -293 -182q22 -4 44 -15q32 -18 50.5 -50.5t18.5 -67.5t-18 -67t-50 -50t-67 -18t-67 18t-50 50t-18 67v65q0 400 450 400t450 -400z" />
    <glyph glyph-name="uni17AA" unicode="&#x17aa;" horiz-adv-x="1401" 
d="M760 1600q-132 0 -269 95l-81 55l-110 -78q0 -33 100 -107l-150 -37q-100 52 -100 108v53q0 37 65 80l66 43q111 88 143 88q24 0 147 -76q130 -74 189 -74q240 0 240 186q0 154 -290 154q0 110 140 110q300 0 300 -264q0 -336 -390 -336zM1151 1100q0 -267 -220 -459
l-73 -64l-293 -256l165 -149l290 328h131v-600h-150v359q-17 -22 -35 -43l-93 -108l-47 -54q-46 -54 -88 -54t-131 81l-89 81l-89 81q-46 42 -46 81q0 37 40 72l413 362q165 145 165 342q0 250 -300 250q-256 0 -293 -182q22 -4 44 -15q32 -18 50.5 -50.5t18.5 -67.5
t-18 -67t-50 -50t-67 -18t-67 18t-50 50t-18 67v65q0 400 450 400t450 -400z" />
    <glyph glyph-name="uni17AB" unicode="&#x17ab;" horiz-adv-x="1400" 
d="M1150 -50v-137q0 -463 -577 -463q-229 0 -366 56q-118 48 -118 82q0 5 3 10q15 58 77 58q31 0 72 -13q126 -43 332 -43q427 0 427 313v137h150zM1000 976q0 106 -200 126q152 204 206 398l107 -72q71 -48 130 -48q30 0 57 13q0 -133 -62 -152q-15 -5 -33 -5
q-55 0 -134 48l-55 -113q134 -59 134 -195v-576q0 -400 -450 -400t-450 400v576q0 106 -200 126q152 204 206 398l107 -72q71 -48 130 -48q30 0 57 13q0 -133 -62 -152q-15 -5 -33 -5q-55 0 -134 48l-55 -113q134 -59 134 -195v-576q0 -250 300 -250t300 250v576z" />
    <glyph glyph-name="uni17AC" unicode="&#x17ac;" horiz-adv-x="1400" 
d="M1150 -50v-137q0 -104 -29 -184l3 -19q22 -110 76 -110q100 0 100 -75t-100 -75q-129 0 -175 133q-144 -133 -452 -133q-229 0 -366 56q-118 47 -118 81q0 6 3 11q15 58 77 58q31 0 72 -13q126 -43 332 -43q427 0 427 313v137h150zM1000 976q0 106 -200 126
q152 204 206 398l107 -72q71 -48 130 -48q30 0 57 13q0 -133 -62 -152q-15 -5 -33 -5q-55 0 -134 48l-55 -113q134 -59 134 -195v-576q0 -400 -450 -400t-450 400v576q0 106 -200 126q152 204 206 398l107 -72q71 -48 130 -48q30 0 57 13q0 -133 -62 -152q-15 -5 -33 -5
q-55 0 -134 48l-55 -113q134 -59 134 -195v-576q0 -250 300 -250t300 250v576z" />
    <glyph glyph-name="uni17AD" unicode="&#x17ad;" horiz-adv-x="1400" 
d="M400 300v-150q40 0 70 62t30 108q0 40 -50 40t-50 -60zM1000 1153l-121 132l-180 -165l-180 165l-119 -132v-657q23 4 50 4q200 0 200 -180q0 -105 -79 -212q-79 -108 -171 -108h-150v1135q0 76 65 150l194 215l190 -178l190 178l194 -215q67 -74 67 -150v-1322
q0 -463 -577 -463q-229 0 -366 56q-118 48 -118 82q0 5 3 10q15 58 77 58q31 0 72 -13q126 -43 332 -43q427 0 427 313v1340z" />
    <glyph glyph-name="uni17AE" unicode="&#x17ae;" horiz-adv-x="1400" 
d="M400 300v-150q40 0 70 62t30 108q0 40 -50 40t-50 -60zM1025 -517q-144 -133 -452 -133q-229 0 -366 56q-118 48 -118 82q0 5 3 10q15 58 77 58q31 0 72 -13q126 -43 332 -43q427 0 427 313v1340l-121 132l-180 -165l-180 165l-119 -132v-657q23 4 50 4q200 0 200 -180
q0 -105 -79 -212q-79 -108 -171 -108h-150v1135q0 76 65 150l194 215l190 -178l190 178l194 -215q67 -74 67 -150v-1322q0 -104 -29 -184l3 -19q22 -110 76 -110q100 0 100 -75t-100 -75q-129 0 -175 133z" />
    <glyph glyph-name="uni17AF" unicode="&#x17af;" horiz-adv-x="1400" 
d="M1150 0h-150l-300 293l-300 -293h-150v790q-100 0 -100 140q0 160 150 160q100 0 100 -100v-785l300 293l300 -293v935q0 210 -204 210q-133 0 -199.5 -25t-146.5 -25q-200 0 -200 191q0 45 20 112.5t20 137.5t-124 70q0 100 100 100q174 0 174 -170q0 -85 -20 -142.5
t-20 -107.5q0 -41 50 -41t117 25q66 25 229 25q354 0 354 -360v-1140z" />
    <glyph glyph-name="uni17B0" unicode="&#x17b0;" horiz-adv-x="1400" 
d="M792 -277q67 -45 116 -45q17 0 31 5q47 25 57 200q-92 -93 -204 -160zM400 300v-150q40 0 70 62t30 108q0 40 -50 40t-50 -60zM647 -361q-129 -67 -259 -92q81 -47 133 -47q51 0 94 16q34 12 34 83q0 18 -2 40zM1000 1153l-121 132l-180 -165l-180 165l-119 -132v-657
q23 4 50 4q200 0 200 -180q0 -105 -79 -212q-79 -108 -171 -108h-150v1135q0 76 65 150l194 215l190 -178l190 178l194 -215q67 -74 67 -150v-1096q0 -397 -148 -480q-43 -23 -88 -23q-73 0 -151 63q11 -32 11 -61q0 -69 -62 -118q-89 -70 -176 -70q-88 0 -187 51t-99 140
q0 107 109 136q310 91 640 403l1 1v1072z" />
    <glyph glyph-name="uni17B1" unicode="&#x17b1;" horiz-adv-x="1400" 
d="M476 1692q217 -44 230 -154h-152q-89 66 -304 98q135 250 382 250q189 0 517 -276q1 -7 1 -13q0 -78 -53 -78q-24 0 -60 17q-237 198 -402 198h-3q-89 0 -156 -42zM1150 1100q0 -267 -220 -459l-73 -64l-293 -256l165 -149l290 328h131v-600h-150v359q-17 -22 -35 -43
l-93 -108l-47 -54q-46 -54 -88 -54t-131 81l-89 81l-89 81q-46 42 -46 81q0 37 40 72l413 362q165 145 165 342q0 250 -300 250q-256 0 -293 -182q22 -4 44 -15q32 -18 50.5 -50.5t18.5 -67.5t-18 -67t-50 -50t-67 -18t-67 18t-50 50t-18 67v65q0 400 450 400t450 -400z" />
    <glyph glyph-name="uni17B2" unicode="&#x17b2;" horiz-adv-x="1400" 
d="M400 400q0 -250 300 -250t300 250q0 44 -29 81q-22 28 -79 36q-9 -9 -19 -17l-173 -145q-31 -27 -59 -27q-29 0 -53 29q-22 26 -22 50q0 29 31 56l173 148q141 121 196 202q34 52 34 87q0 53 -35 78q-32 22 -90 22q-60 0 -91 -23q-34 -25 -34 -77q0 -60 110 -60
q-60 -90 -123 -90q-59 0 -98 38q-39 37 -39 112q0 102 70 176t205 74q134 0 204.5 -73.5t70.5 -176.5q0 -55 -30 -116q-36 -76 -117 -161q64 -21 100 -67q47 -61 47 -156q0 -400 -450 -400t-450 400v700q0 400 450 400t450 -250h-150q0 100 -300 100t-300 -250v-700z" />
    <glyph glyph-name="uni17B3" unicode="&#x17b3;" horiz-adv-x="1400" 
d="M1150 1597q0 -78 -53 -78q-24 0 -60 17q-237 198 -402 198h-3q-89 0 -156 -42q217 -44 230 -154h-152q-89 66 -304 98q135 250 382 250q128 0 319 -126q-8 45 -8 85q0 231 241 334l59 -138q-144 -61 -144 -211q0 -89 51 -209v-24zM1150 1100q0 -267 -220 -459l-73 -64
l-293 -256l165 -149l290 328h131v-600h-150v359q-17 -22 -35 -43l-93 -108l-47 -54q-46 -54 -88 -54t-131 81l-89 81l-89 81q-46 42 -46 81q0 37 40 72l413 362q165 145 165 342q0 250 -300 250q-256 0 -293 -182q22 -4 44 -15q32 -18 50.5 -50.5t18.5 -67.5t-18 -67
t-50 -50t-67 -18t-67 18t-50 50t-18 67v65q0 400 450 400t450 -400z" />
    <glyph glyph-name="uni17B6" unicode="&#x17b6;" horiz-adv-x="650" 
d="M-462 1279l370 221l426 -223q66 -37 66 -125v-1152h-150v1152l-336 175l-280 -167z" />
    <glyph glyph-name="uni17B7" unicode="&#x17b7;" 
d="M-1120 2000q0 250 320 250q200 0 375 -150l175 -150v-150h-620q-250 0 -250 200zM-870 1950h390q-119 130 -320 130q-150 0 -150 -80q0 -50 80 -50z" />
    <glyph glyph-name="uni17B8" unicode="&#x17b8;" 
d="M-870 1950h390q-119 130 -320 130q-150 0 -150 -80q0 -50 80 -50zM-870 1800q-250 0 -250 200q0 250 320 250q200 0 375 -150q13 -11 25 -22v272h150v-550h-620z" />
    <glyph glyph-name="uni17B9" unicode="&#x17b9;" 
d="M-870 1950h390q-119 130 -320 130q-150 0 -150 -80q0 -50 80 -50zM-480 2177q0 -27 14 -41t41 -14q28 0 42 14q13 14 13 41q0 28 -13 41q-14 14 -42 14q-27 0 -41 -14q-14 -13 -14 -41zM-331 2020l81 -70v-150h-620q-250 0 -250 200q0 250 320 250q105 0 202 -41
q7 64 42 99q44 44 131 44q88 0 132 -44q43 -43 43 -131t-43 -131q-16 -16 -38 -26z" />
    <glyph glyph-name="uni17BA" unicode="&#x17ba;" 
d="M-870 1950h390q-119 130 -320 130q-150 0 -150 -80q0 -50 80 -50zM-650 2228v122h150l1 -193q38 -25 74 -57q13 -11 25 -22v272h150v-550h-620q-250 0 -250 200q0 250 320 250q77 0 150 -22z" />
    <glyph glyph-name="uni17BB" unicode="&#x17bb;" 
d="M-250 -200v-450h-150v350q-80 0 -80 100t120 100q110 0 110 -100z" />
    <glyph glyph-name="uni17BC" unicode="&#x17bc;" 
d="M-450 -650q-133 0 -178 66q-29 42 -29 96q0 31 10 67l43 121q-80 0 -80 100t120 100q123 0 123 -125q0 -52 -21 -125l-34 -99q-3 -9 -3 -17q0 -34 66 -34q73 0 147 200l74 200h54q25 0 25 -69q0 -87 -68 -284t-249 -197z" />
    <glyph glyph-name="uni17BD" unicode="&#x17bd;" 
d="M-431 -513q-137 -137 -272 -137q-96 0 -96 129q0 77 130 221q21 25 21 46q0 34 -62 54q0 100 107 100q103 0 103 -67q0 -68 -63 -174q-69 -116 -69 -147q0 -12 9 -12q82 0 233 172q31 -172 97 -172q43 0 95 300l17 100h39q39 0 39 -98t-17 -200q-37 -252 -173 -252
q-83 0 -138 137z" />
    <glyph glyph-name="uni17BE" unicode="&#x17be;" 
d="M-870 1950h390q-119 130 -320 130q-150 0 -150 -80q0 -50 80 -50zM-870 1800q-250 0 -250 200q0 250 320 250q200 0 375 -150q13 -11 25 -22v272h150v-550h-620z" />
    <glyph glyph-name="uni17BF" unicode="&#x17bf;" horiz-adv-x="650" 
d="M-390 2050h390q-119 130 -320 130q-150 0 -150 -80q0 -50 80 -50zM230 2000l70 -53q100 -74 100 -247v-2000q0 -350 -400 -350t-400 350v200h150v-200q0 -200 250 -200t250 200v2000q0 150 -150 200h-490q-250 0 -250 200q0 250 320 250q77 0 150 -22v172h150l1 -243
q38 -25 74 -57q13 -11 25 -22v272h150v-450z" />
    <glyph glyph-name="uni17C0" unicode="&#x17c0;" horiz-adv-x="650" 
d="M250 1640q0 210 -234 210h-216q-250 0 -250 191q0 45 20 112.5t20 137.5t-124 70q0 100 100 100q174 0 174 -170q0 -85 -20 -142.5t-20 -107.5q0 -41 100 -41h216q384 0 384 -360v-1940q0 -350 -400 -350t-400 350v200h150v-200q0 -200 250 -200t250 200v1940z" />
    <glyph glyph-name="uni17C1" unicode="&#x17c1;" horiz-adv-x="650" 
d="M250 976q0 106 -200 126q152 204 206 398l107 -72q71 -48 130 -48q30 0 57 13q0 -133 -62 -152q-15 -5 -33 -5q-55 0 -134 48l-55 -113q134 -59 134 -195v-496h50q100 0 100 -140q0 -110 -130 -340h-170v976z" />
    <glyph glyph-name="uni17C2" unicode="&#x17c2;" horiz-adv-x="650" 
d="M270 1800q-55 0 -55 -25t85 -25q67 0 108.5 32.5t41.5 87.5q0 75 -30 113q-30 37 -80 37q-90 0 -90 75t90 75q112 0 186 -72q74 -73 74 -228q0 -105 -72 -187q-73 -83 -228 -83q-112 0 -181 31t-69 119t28 119q27 31 82 31t82 -25q28 -25 28 -75zM250 976q0 106 -200 126
q152 204 206 398l107 -72q71 -48 130 -48q30 0 57 13q0 -133 -62 -152q-15 -5 -33 -5q-55 0 -134 48l-55 -113q134 -59 134 -195v-496h50q100 0 100 -140q0 -110 -130 -340h-170v976z" />
    <glyph glyph-name="uni17C3" unicode="&#x17c3;" horiz-adv-x="650" 
d="M225 1820q75 0 75 -35t50 -35q100 0 100 70q0 50 -25 75t-75 25h-50q-150 0 -150 100q0 80 -100 80q0 100 100 100q78 0 114 -45t36 -95h50q138 0 194 -55t56 -185q0 -120 -56 -170t-194 -50q-200 0 -200 140q0 80 75 80zM250 976q0 106 -200 126q152 204 206 398
l107 -72q71 -48 130 -48q30 0 57 13q0 -133 -62 -152q-15 -5 -33 -5q-55 0 -134 48l-55 -113q134 -59 134 -195v-496h50q100 0 100 -140q0 -110 -130 -340h-170v976z" />
    <glyph glyph-name="uni17C4" unicode="&#x17c4;" horiz-adv-x="650" 
d="M-462 1279l370 221l426 -223q66 -37 66 -125v-1152h-150v1152l-336 175l-280 -167z" />
    <glyph glyph-name="uni17C5" unicode="&#x17c5;" horiz-adv-x="650" 
d="M250 1321v349q0 80 -105 100t-105 130h115q245 0 245 -230v-1670h-150v1152l-336 175l-280 -167l-94 120l368 220z" />
    <glyph glyph-name="uni17C6" unicode="&#x17c6;" 
d="M-775 2025q0 -37 19 -56t56 -19q38 0 57 19q18 19 18 56q0 38 -18 56q-19 19 -57 19q-37 0 -56 -19q-19 -18 -19 -56zM-475 2025q0 -113 -56 -169t-169 -56t-169 56t-56 169t56 169t169 56t169 -56t56 -169z" />
    <glyph glyph-name="uni17C7" unicode="&#x17c7;" horiz-adv-x="950" 
d="M400 1225q0 -37 19 -56t56 -19q38 0 56 19q19 19 19 56q0 38 -19 56q-18 19 -56 19q-37 0 -56 -19q-19 -18 -19 -56zM700 1225q0 -113 -56 -169t-169 -56t-169 56t-56 169t56 169t169 56t169 -56t56 -169zM400 275q0 -37 19 -56t56 -19q38 0 56 19q19 19 19 56
q0 38 -19 56q-18 19 -56 19q-37 0 -56 -19q-19 -18 -19 -56zM700 275q0 -113 -56 -169t-169 -56t-169 56t-56 169t56 169t169 56t169 -56t56 -169z" />
    <glyph glyph-name="uni17C8" unicode="&#x17c8;" horiz-adv-x="800" 
d="M375 150q-63 0 -94 31t-31 94t31 94t94 31t94 -32q31 -31 31 -94q0 -30 25 -30t75 30q-25 -62 -81 -93q-57 -31 -144 -31zM375 1098q-63 0 -94 31t-31 94t31 94t94 31t94 -32q31 -31 31 -94q0 -30 25 -30t75 30q-25 -62 -81 -93q-57 -31 -144 -31z" />
    <glyph glyph-name="uni17C9" unicode="&#x17c9;" 
d="M-800 2200v-300q0 -80 -62 -100q-63 20 -63 100v300h125zM-475 2200v-300q0 -80 -62 -100q-63 20 -63 100v300h125z" />
    <glyph glyph-name="uni17CA" unicode="&#x17ca;" 
d="M-1253 1670l132 101l66 50q67 51 96 51t87 -29l57 -28l115 -57l95 57l47 28q47 29 77 29q29 0 71 -30l43 -29q85 -60 225 -110q-69 -81 -128 -81q-15 0 -29 5q-72 26 -190 88l-211 -103l-244 105l-161 -104q-16 -13 -36 -13q-46 0 -112 70z" />
    <glyph glyph-name="uni17CB" unicode="&#x17cb;" 
d="M-625 2250v-350q0 -80 -75 -100q-75 20 -75 100v350h150z" />
    <glyph glyph-name="uni17CC" unicode="&#x17cc;" 
d="M-880 1851q-61 -51 -99 -51q-32 0 -52 26q-13 18 -13 36q0 39 64 82l94 61q142 92 199 225q56 134 56 175q0 95 75 95q74 0 74 -95q-1 -70 -63 -177q-62 -108 -170 -213q62 16 119 16q37 0 72 -7q87 -18 148 -96q20 -34 20 -59q0 -37 -38 -57q-21 -12 -41 -12
q-38 0 -68 48q-44 71 -112 81q-39 3 -70 3q-62 0 -91 -12q-43 -18 -104 -69z" />
    <glyph glyph-name="uni17CD" unicode="&#x17cd;" 
d="M-650 1986q0 -28 12 -46q13 -19 48 -19q50 0 50 18q0 11 70 11t70 -31q0 -59 -44 -89t-141 -30q-127 0 -171 44t-44 141q0 107 60 171t160 64q127 0 175 -59q76 25 141 69q64 43 106 115l11 2q19 0 38 -49.5t19 -63.5t-12 -24q-45 -63 -105 -113q-61 -49 -136 -86
q-36 -11 -70 -11q-74 70 -137 70q-45 0 -72 -28q-28 -29 -28 -56z" />
    <glyph glyph-name="uni17CE" unicode="&#x17ce;" 
d="M-760 1949h-150v121h150v149h120v-149h150v-121h-150v-149h-120v149z" />
    <glyph glyph-name="uni17CF" unicode="&#x17cf;" 
d="M-480 2450q99 0 99 -75t-99 -75q-35 0 -82 -100l-16 -50h-102q-210 0 -210 -150q0 -70 40 -70t150 136q110 -136 160 -136q30 0 30 30q0 40 -50 40q0 100 100 100t100 -140q0 -160 -175 -160q-95 0 -165 100q-70 -100 -155 -100q-185 0 -185 200q0 280 360 280
q73 170 200 170z" />
    <glyph glyph-name="uni17D0" unicode="&#x17d0;" 
d="M-630 2200q130 0 130 -105q0 -95 -75 -95q-65 0 -75 50q0 -99 150 -99q125 0 188 53q62 53 62 109q0 120 -50 145t-50 75t50 50q75 0 137.5 -80t62.5 -190q0 -157 -112 -235q-113 -78 -288 -78q-300 0 -300 250q0 150 170 150z" />
    <glyph glyph-name="uni17D1" unicode="&#x17d1;" 
d="M-250 1800v-100h-750v100h750z" />
    <glyph glyph-name="uni17D2" unicode="&#x17d2;" 
d="M-500 -450h-150v-150h-100v150h-150v100h150v150h100v-150h150v-100z" />
    <glyph glyph-name="uni17D3" unicode="&#x17d3;" 
d="M-925 1750q0 -50 37 -75q38 -25 113 -25t113 25q37 25 37 75t-37 75q-38 25 -113 25t-113 -25q-37 -25 -37 -75zM-525 1750q0 -100 -63 -150q-62 -50 -187 -50t-187 50q-63 50 -63 150t63 150q62 50 187 50t187 -50q63 -50 63 -150z" />
    <glyph glyph-name="uni17D4" unicode="&#x17d4;" horiz-adv-x="1550" 
d="M1150 1392v108h150v-1295q0 -117 -48 -161q-47 -44 -142 -44q-55 0 -82 25q-28 25 -28 76q63 0 106.5 18.5t43.5 85.5v966q-188 -171 -400 -171q-300 0 -300 250t250 250q100 0 100 -75t-100 -75t-100 -100t150 -100q218 0 400 242z" />
    <glyph glyph-name="uni17D5" unicode="&#x17d5;" horiz-adv-x="1850" 
d="M1450 1500h150v-1350q0 -75 -62 -112q-63 -38 -188 -38q50 25 75 62q25 38 25 88v1350zM1150 1392v108h150v-1295q0 -117 -48 -161q-47 -44 -142 -44q-55 0 -82 25q-28 25 -28 76q63 0 106.5 18.5t43.5 85.5v966q-188 -171 -400 -171q-300 0 -300 250t250 250
q100 0 100 -75t-100 -75t-100 -100t150 -100q218 0 400 242z" />
    <glyph glyph-name="uni17D6" unicode="&#x17d6;" horiz-adv-x="1350" 
d="M700 1225q0 -37 19 -56t56 -19q38 0 56 19q19 19 19 56q0 38 -19 56q-18 19 -56 19q-37 0 -56 -19q-19 -18 -19 -56zM1000 1225q0 -113 -56 -169t-169 -56t-169 56t-56 169t56 169t169 56t169 -56t56 -169zM700 275q0 -37 19 -56t56 -19q38 0 56 19q19 19 19 56
q0 38 -19 56q-18 19 -56 19q-37 0 -56 -19q-19 -18 -19 -56zM1000 275q0 -113 -56 -169t-169 -56t-169 56t-56 169t56 169t169 56t169 -56t56 -169zM1100 825v-151h-650v151h650z" />
    <glyph glyph-name="uni17D7" unicode="&#x17d7;" horiz-adv-x="1450" 
d="M488 956q-130 0 -184 63t-54 170q31 72 104 155t158 156l272 -210l289 209h127v-1149q0 -175 -104 -263q-104 -87 -312 -87q-207 0 -311 44q-104 43 -104 131q0 58 29.5 87t89.5 29q0 -95 74 -118t222 -23q121 0 193.5 37.5t72.5 162.5v939l-264 -174l-254 174l-107 -100
q0 -50 16 -64q15 -15 47 -15q29 0 44 13q15 12 15 37q30 0 44 -21q15 -22 15 -66t-29.5 -80.5t-88.5 -36.5z" />
    <glyph glyph-name="uni17D8" unicode="&#x17d8;" horiz-adv-x="4900" 
d="M1150 1392v108h150v-1295q0 -117 -48 -161q-47 -44 -142 -44q-55 0 -82 25q-28 25 -28 76q63 0 106.5 18.5t43.5 85.5v966q-188 -171 -400 -171q-300 0 -300 250t250 250q100 0 100 -75t-100 -75t-100 -100t150 -100q218 0 400 242zM4500 1392v108h150v-1295
q0 -117 -48 -161q-47 -44 -142 -44q-55 0 -82 25q-28 25 -28 76q63 0 106.5 18.5t43.5 85.5v966q-188 -171 -400 -171q-300 0 -300 250t250 250q100 0 100 -75t-100 -75t-100 -100t150 -100q218 0 400 242zM1950 300v-150q40 0 70 62t30 108q0 40 -50 40t-50 -60zM1950 496
q23 4 50 4q200 0 200 -180q0 -105 -79 -212q-79 -108 -171 -108h-150v1100q0 400 425 400t425 -400v-700q0 -250 250 -250t250 250v576q0 106 -200 126q152 204 206 398l107 -72q71 -48 130 -48q30 0 57 13q0 -133 -62 -152q-15 -5 -33 -5q-55 0 -134 48l-55 -113
q134 -59 134 -195v-576q0 -400 -400 -400t-400 400v700q0 250 -275 250t-275 -250v-604z" />
    <glyph glyph-name="uni17D9" unicode="&#x17d9;" horiz-adv-x="2100" 
d="M950 0q-349 0 -525 175q-175 175 -175 525t175 525q176 175 525 175t525 -175q175 -175 175 -525t-175 -525q-176 -175 -525 -175zM950 1250q-550 0 -550 -550t550 -550t550 550t-550 550zM950 300q-201 0 -300 100q-100 100 -100 300t100 300q99 100 300 100t300 -100
q100 -100 100 -300t-100 -300q-99 -100 -300 -100zM950 950q-124 0 -187 -62q-63 -63 -63 -188t63 -187q63 -63 187 -63t187 63q63 62 63 187t-63 188q-63 62 -187 62z" />
    <glyph glyph-name="uni17DA" unicode="&#x17da;" horiz-adv-x="3850" 
d="M3105 512q0 -3 1 -5q5 -8 12 -8q6 0 13 6q1 1 1 4q0 7 -11 29q-16 -17 -16 -26zM1854 1111q0 13 -7 20q-24 24 -47 24q-28 0 -54 -35q-7 -9 -7 -23q0 -35 42 -100q5 -9 12 -18q61 94 61 132zM2027 358q0 -7 4 -11q19 -22 41 -22q18 0 37 15q6 4 6 13q0 26 -44 86
q-44 -56 -44 -81zM2451 1087q0 4 -2 7q-15 20 -33 20q-14 0 -30 -12q-5 -4 -5 -13q0 -21 30 -71q40 50 40 69zM2617 439q0 -1 1 -2q7 -8 16 -8q8 0 16 5q2 1 2 4q0 8 -14 30q-21 -22 -21 -29zM3007 1010q0 1 -1 1q-5 5 -11 5q-9 0 -19 -9q-2 -2 -2 -5q0 -8 8 -23
q25 25 25 31zM3156 738q41 18 87 30q115 32 262 32q95 0 95 -75t-99 -75h-120q-86 0 -152 -33q20 -41 29 -76q7 -29 7 -53q0 -62 -47 -98q-57 -43 -108 -43q-8 0 -16 1q-59 7 -110 71q-39 49 -39 99q0 14 3 29q15 60 89 120q-15 22 -32 46q-18 22 -33 43q-46 -42 -102 -87
q-78 -64 -133 -110q20 -38 32 -71q16 -46 16 -82q0 -57 -42 -89q-58 -43 -110 -43q-9 0 -18 1q-61 9 -113 76q-23 30 -23 69q0 47 35 108q17 28 41 59q-36 49 -86 113l-69 86q-49 -56 -112 -119q-75 -72 -129 -128q44 -65 67 -119q23 -55 23 -97q0 -60 -46 -95
q-72 -55 -137 -55q-7 0 -13 1q-71 6 -134 80q-31 37 -31 87q0 51 32 117q22 45 58 96q-43 48 -99 108q-39 41 -73 80q-67 -96 -160 -208q-223 -267 -418 -400q-196 -134 -363 -134q-207 0 -311 187q-104 188 -104 563t119 562q119 188 356 188q238 0 357 -99
q118 -99 118 -297q0 -203 -86 -326q-87 -124 -260 -168q-21 -6 -38 -6q-51 0 -66 54q-4 14 -4 26q0 51 69 70q117 30 176 116t59 227q0 126 -81 189q-82 64 -244 64t-243 -150q-81 -148 -81 -443v-7q0 -300 66 -450t199 -150q132 0 294 116t355 348q120 144 197 249
q-54 77 -80 142q-25 62 -25 114q0 66 42 114q74 85 148 86h2q72 0 145 -83q37 -42 37 -106q0 -65 -38 -153q-23 -53 -59 -114q42 -49 95 -105q47 -50 86 -96q49 55 111 116q81 76 138 135q-32 59 -54 125q-16 48 -16 86q0 67 49 104q68 51 127 51q8 0 16 -1q67 -8 124 -81
q26 -33 26 -79q0 -54 -37 -126q-22 -42 -56 -91q35 -46 81 -103q44 -55 79 -105q46 45 105 94q74 60 125 104q-23 45 -34 83q-9 32 -9 59q0 59 46 94q56 42 108 42q9 0 18 -1q60 -8 114 -75q24 -30 24 -69q0 -46 -35 -104q-19 -31 -48 -66q21 -27 47 -60q23 -29 42 -56z" />
    <glyph glyph-name="uni17DB" unicode="&#x17db;" horiz-adv-x="650" 
d="M400 825h150v-150h-150v-675h-170q-130 230 -130 340q0 140 100 140h50v195h-200v150h200v151q0 106 -200 126q152 204 206 398l107 -72q71 -48 130 -48q30 0 57 13q0 -133 -62 -152q-15 -5 -33 -5q-55 0 -134 48l-55 -113q134 -59 134 -195v-151z" />
    <glyph glyph-name="uni17E0" unicode="&#x17e0;" horiz-adv-x="1550" 
d="M250 600v300q0 600 526 600q524 0 524 -600v-300q0 -600 -524 -600q-526 0 -526 600zM400 900v-300q0 -450 376 -450q374 0 374 450v300q0 450 -374 450q-376 0 -376 -450z" />
    <glyph glyph-name="uni17E1" unicode="&#x17e1;" horiz-adv-x="1550" 
d="M1122 233q-179 -233 -622 -233v150q389 0 519.5 188.5t130.5 561.5q0 273 -120.5 361.5t-273.5 88.5q-154 0 -255 -83.5t-101 -236.5q0 -125 67.5 -187.5t164.5 -62.5q71 0 99 70q-81 14 -81 90q0 130 125 130t125 -130q0 -137 -69 -215q-70 -79 -199 -79
q-181 0 -281 109q-101 108 -101 275q0 195 129 333q129 137 377 137q247 0 396 -142q148 -143 148 -458q0 -435 -178 -667z" />
    <glyph glyph-name="uni17E2" unicode="&#x17e2;" horiz-adv-x="1710" 
d="M810 875v-75q48 0 48 50q0 12 -13 19q-12 6 -35 6zM800 0q-270 0 -410 115t-140 285v1050q0 116 -150 116q0 134 130 134q170 0 170 -250v-1050q0 -128 112 -189t288 -61h110q176 0 288 61t112 189v800q0 64 -58 99q-10 5 -21 5q-59 0 -170 -154q-109 154 -170 154
q-11 0 -20 -5q-61 -35 -61 -99v-225q74 0 111 -31q37 -32 37 -94q0 -150 -148 -150q-150 0 -150 100v400q0 122 109 211t139 89t153 -174q123 174 152 174q30 0 138 -89q109 -89 109 -211v-800q0 -170 -140 -285t-410 -115h-110z" />
    <glyph glyph-name="uni17E3" unicode="&#x17e3;" horiz-adv-x="1810" 
d="M400 175v-75q48 0 48 50q0 12 -13 19q-12 6 -35 6zM840 1150q0 200 -215 200q-225 0 -225 -200v-875q74 0 111 -31q37 -32 37 -94q0 -150 -148 -150h-150v1150q0 350 375 350q197 0 291 -87q94 87 271 87q373 0 373 -350v-1150h-150v1150q0 200 -243 200
q-177 0 -177 -200v-1150h-150v1150z" />
    <glyph glyph-name="uni17E4" unicode="&#x17e4;" horiz-adv-x="1550" 
d="M1180 700q10 10 10 35q0 51 -90 51v-97q70 0 80 11zM250 800q0 344 365 454l283 91q242 78 242 185q0 70 -128 70q0 100 100 100q188 0 188 -170q0 -210 -342 -318l-304 -95q-244 -69 -244 -317v-450q0 -108 92 -149t198 -41h412q-162 211 -162 290v250q0 200 146 200
q74 0 119.5 -24.5t65 -69t19.5 -101.5q0 -55 -35 -105t-165 -50v-100q0 -101 200 -300v-150h-600q-200 0 -325 100t-125 250v450z" />
    <glyph glyph-name="uni17E5" unicode="&#x17e5;" horiz-adv-x="1550" 
d="M672 1212q34 34 34 66q0 88 -78 88t-78 -88q0 -44 122 -66zM1180 600q10 10 10 35q0 51 -90 51v-97q70 0 80 11zM815 1187l201 -26q13 -2 25 -2q109 0 109 141v230q0 170 130 170q120 0 120 -100q-100 0 -100 -70v-230q0 -300 -225 -300l-386 65q-31 -20 -69 -40
q-220 -69 -220 -315v-360q0 -108 97 -154t203 -46h412q-162 171 -162 250v200q0 200 146 200q74 0 119.5 -24.5t65 -69t19.5 -101.5q0 -55 -35 -105t-165 -50v-50q0 -101 200 -250v-150h-600q-200 0 -325 100t-125 250v360q0 280 266 407q-100 55 -100 161q0 222 212 222
t212 -222q0 -47 -25 -91z" />
    <glyph glyph-name="uni17E6" unicode="&#x17e6;" horiz-adv-x="1550" 
d="M400 1325q168 175 381 175q252 0 385.5 -157.5t133.5 -542.5v-200q0 -285 -133.5 -442.5t-390.5 -157.5q-288 0 -407 142q-119 143 -119 328q0 153 91 241q90 89 251 89q129 0 193.5 -58.5t64.5 -195.5q0 -100 -100 -100t-100 100q0 56 31 80q-28 40 -89 40
q-192 0 -192 -196q0 -143 91 -231.5t285 -88.5q163 0 268.5 103.5t105.5 346.5v200q0 343 -105.5 446.5t-263.5 103.5q-229 0 -381 -250q0 -100 -56 -100q-94 0 -94 100v400q0 116 -150 116q0 134 130 134q170 0 170 -250v-175z" />
    <glyph glyph-name="uni17E7" unicode="&#x17e7;" horiz-adv-x="1750" 
d="M400 222q98 90 98 167q0 40 -27 59q-27 18 -71 18v-244zM1275 144q75 0 75 56v1250q0 116 -150 116q0 134 130 134q170 0 170 -250v-1250q0 -200 -225 -200t-225 200v1000q0 64 -93 117q-23 12 -47 12q-79 0 -184 -130q-105 130 -185 130q-25 0 -47 -12q-94 -53 -94 -117
v-600q145 0 189 -59q43 -60 43 -126q0 -78 -40 -165q-40 -88 -116 -169l-76 -81h-150v1200q0 122 116 211t179 89q52 0 181 -134q128 134 181 134q62 0 177 -89q116 -89 116 -211v-1000q0 -56 75 -56z" />
    <glyph glyph-name="uni17E8" unicode="&#x17e8;" horiz-adv-x="1550" 
d="M1150 589v97q-40 -20 -40 -51q0 -25 10 -35q10 -11 30 -11zM250 1000q0 215 118 357q119 143 391 143q223 0 391 -165v165q0 250 170 250q130 0 130 -134q-150 0 -150 -116v-350q0 -100 -84 -100q-32 0 -54 50q-164 250 -403 250q-178 0 -268.5 -88.5t-90.5 -261.5v-700
q0 -64 112 -116q24 -12 50 -12q95 0 214 149q119 -149 213 -149q26 0 50 12q111 52 111 116v150q-80 0 -115 50t-35 105q0 57 19.5 101.5t65 69t101.5 24.5q114 0 114 -200v-300q0 -122 -128 -211q-127 -89 -196 -89q-58 0 -200 144q-142 -144 -200 -144q-70 0 -198 89
t-128 211v700z" />
    <glyph glyph-name="uni17E9" unicode="&#x17e9;" horiz-adv-x="1550" 
d="M1054 257l57 33q0 24 -16 24q-5 0 -13 -3q-23 -9 -29 -22q-3 -6 -3 -14t4 -18zM944 197q-16 46 -16 82q0 30 11 53q24 51 75 71q48 19 93 19h9q48 -2 91 -35q43 -34 43 -108q0 -75 -171.5 -177t-328.5 -102q-248 0 -366 104q-134 117 -134 346q0 170 74 281
q75 112 224 165q-98 87 -98 254q0 187 103 274q89 76 276 76q183 0 321 -175v175q0 116 -188 116q0 134 180 134q158 0 158 -250v-300q0 -100 -94 -100q-72 0 -94 50q-144 200 -283 200q-87 0 -158 -39.5t-71 -155.5q0 -105 79.5 -158t200.5 -53q194 0 364 -137
q56 -49 56 -139q0 -41 -23 -41q-29 0 -92 62q-115 111 -305 111q-221 0 -350.5 -87.5t-129.5 -262.5q0 -157 97.5 -228.5t252.5 -71.5q86 0 194 47z" />
    </font>
</defs>
</svg>
